<?xml version="1.0" standalone="no"?>
<!DOCTYPE svg PUBLIC "-//W3C//DTD SVG 1.1//EN" "http://www.w3.org/Graphics/SVG/1.1/DTD/svg11.dtd" >
<svg xmlns="http://www.w3.org/2000/svg">
<metadata></metadata>
<defs>
<font id="circularbold" horiz-adv-x="0" >
<font-face units-per-em="2048" ascent="1638" descent="-410" />
<missing-glyph horiz-adv-x="690" />
<glyph unicode="&#x3b;&#x3b;For&#x20;Education&#x20;Used&#x20;Only&#x3b;&#x3b;" horiz-adv-x="1358" d="M81 598q0 124 47 233t128 190.5t190 128.5t233 47t233 -47t190.5 -128.5t128.5 -190.5t47 -233t-47 -233t-128.5 -190t-190.5 -128t-233 -47q-82 0 -158.5 21.5t-143 60.5t-121 93.5t-93.5 121t-60.5 142.5t-21.5 159zM249 598q0 -89 34 -167t92.5 -136.5t136.5 -92.5 t167 -34t167.5 34t137 92.5t92 136.5t33.5 167t-33.5 167.5t-92 137t-137 92t-167.5 33.5t-167 -33.5t-136.5 -92t-92.5 -137t-34 -167.5zM679 387q45 0 97.5 16.5t103.5 47.5l13 -6v-155q-26 -14 -50 -25t-49.5 -19t-53 -12.5t-61.5 -4.5q-55 0 -105 20.5t-88 56.5 t-60.5 84t-22.5 103v207q0 55 22.5 103t60.5 84t88 56.5t105 20.5q34 0 61.5 -4.5t53 -12.5t49.5 -19.5t50 -24.5v-154l-13 -7q-51 31 -103.5 47.5t-97.5 16.5q-22 0 -43 -8t-37 -22.5t-26 -34t-10 -41.5v-207q0 -22 10 -41.5t26 -33.5t37 -22.5t43 -8.5z" />
<glyph unicode="&#x3b;&#x3b;Registered&#x3b;&#x3b;" horiz-adv-x="1358" d="M81 598q0 124 47 233t128 190.5t190 128.5t233 47t233 -47t190.5 -128.5t128.5 -190.5t47 -233t-47 -233t-128.5 -190t-190.5 -128t-233 -47q-82 0 -158.5 21.5t-143 60.5t-121 93.5t-93.5 121t-60.5 142.5t-21.5 159zM249 598q0 -89 34 -167t92.5 -136.5t136.5 -92.5 t167 -34t167.5 34t137 92.5t92 136.5t33.5 167t-33.5 167.5t-92 137t-137 92t-167.5 33.5t-167 -33.5t-136.5 -92t-92.5 -137t-34 -167.5zM587 305l-16 -16h-117l-16 16v503q0 32 12.5 60.5t34 50t50 34t60.5 12.5h125q46 0 86 -17t70 -47t47 -70t17 -86t-23 -86t-67 -70 q29 -22 49 -59.5t20 -74.5v-150l-16 -16h-117l-16 16v150q0 29 -13.5 50t-36.5 21h-133v-221zM720 675q29 0 50 20.5t21 49.5t-21 50t-50 21h-125q-8 0 -8 -8v-133h133z" />
<glyph unicode="&#x3b;&#x3b;Trademark&#x3b;&#x3b;" horiz-adv-x="886" d="M252 880l-8 -8h-81l-8 8v224h-108l-8 8v80l8 8h108h97h108l8 -8v-80l-8 -8h-108v-224zM837 880l-8 -8h-80l-8 8v214q0 10 -10 10q-4 0 -6.5 -5t-4.5 -11l-46 -143q-6 -15 -20.5 -20.5t-26.5 -5.5q-13 0 -27.5 5.5t-20.5 20.5l-46 143q-2 6 -4.5 11t-6.5 5q-9 0 -9 -10 v-214l-8 -8h-81l-8 8v214q0 45 30.5 75.5t75.5 30.5q21 0 38 -8.5t29.5 -22t22 -31t15.5 -35.5q5 18 14 35.5t22 31t30 22t38 8.5q45 0 75.5 -30.5t30.5 -75.5v-214z" />
<glyph unicode="&#x3b;&#x3b;Multiply&#x3b;&#x3b;" horiz-adv-x="972" d="M486 618q62 69 127 142t125 140l172 -18l15 -16l-330 -368l332 -372l-15 -14l-169 -23l-257 287l-257 -287l-169 23l-15 14l332 372l-330 368l15 16l172 18q60 -67 125 -140t127 -142z" />
<glyph unicode="&#x3b;&#x3b;Divide&#x3b;&#x3b;" horiz-adv-x="800" d="M66 376l-16 16v124l16 16h668l16 -16v-124l-16 -16h-668zM292 708q0 22 8.5 42t23 34.5t34 23t42.5 8.5q22 0 42 -8.5t34.5 -23t23 -34.5t8.5 -42q0 -23 -8.5 -42.5t-23 -34t-34.5 -23t-42 -8.5q-23 0 -42.5 8.5t-34 23t-23 34t-8.5 42.5zM292 192q0 22 8.5 42t23 34.5 t34 23t42.5 8.5q22 0 42 -8.5t34.5 -23t23 -34.5t8.5 -42q0 -23 -8.5 -42.5t-23 -34t-34.5 -23t-42 -8.5q-23 0 -42.5 8.5t-34 23t-23 34t-8.5 42.5z" />
<glyph unicode="&#x2018;&#x2018;" horiz-adv-x="775" d="M347 1008q-14 0 -31.5 -2t-34.5 -8t-32.5 -16t-25.5 -26q22 -4 41 -16t33 -28t22 -35t8 -38q0 -27 -10 -50.5t-27.5 -41t-41 -27.5t-50.5 -10q-26 0 -49.5 10t-41 27.5t-27.5 41t-10 50.5v68q0 50 18.5 94.5t54 77.5t87 52t117.5 19l12 -13v-114zM696 1008 q-14 0 -31.5 -2t-34.5 -8t-32.5 -16t-25.5 -26q22 -4 41 -16t33 -28t22 -35t8 -38q0 -27 -10 -50.5t-27.5 -41t-41 -27.5t-50.5 -10q-26 0 -49.5 10t-41 27.5t-27.5 41t-10 50.5v68q0 50 18.5 94.5t54 77.5t87 52t117.5 19l12 -13v-114z" />
<glyph unicode="&#x2019;&#x2019;" horiz-adv-x="785" d="M431 852q14 0 31.5 2t34.5 8t32.5 16t25.5 26q-22 4 -41 16t-33 28t-22 35t-8 38q0 27 10 50.5t27.5 41t41 27.5t50.5 10q26 0 49.5 -10t41 -27.5t27.5 -41t10 -50.5v-68q0 -50 -18.5 -94.5t-54 -77.5t-87 -52t-117.5 -19l-12 13v114zM82 852q14 0 31.5 2t34.5 8t32.5 16 t25.5 26q-22 4 -41 16t-33 28t-22 35t-8 38q0 27 10 50.5t27.5 41t41 27.5t50.5 10q26 0 49.5 -10t41 -27.5t27.5 -41t10 -50.5v-68q0 -50 -18.5 -94.5t-54 -77.5t-87 -52t-117.5 -19l-12 13v114z" />
<glyph unicode="&#xe24;&#xe32;" horiz-adv-x="1282" d="M1155 -300h-131l-17 17v851q0 31 -11.5 57.5t-31 46t-46.5 31t-57 11.5q-17 0 -35.5 -6t-36.5 -15.5t-34.5 -22.5t-29.5 -27q9 -36 9 -75v-851l-17 -17h-131l-17 17v851q0 31 -11.5 57.5t-31.5 46.5t-46.5 31.5t-57.5 11.5q-60 0 -97.5 -14.5t-63.5 -50.5 q11 -38 12.5 -79.5t1.5 -75.5v-318q0 -5 5 -11.5t11 -6.5q17 0 36 4t38 9h18v-152q-26 -8 -51.5 -14t-47.5 -6q-36 0 -67.5 13.5t-55.5 37.5t-37.5 55.5t-13.5 67.5v321q0 43 -7.5 82t-22.5 77q40 104 127 165t215 61q65 0 121.5 -24.5t98.5 -66.5q48 42 104 66.5t115 24.5 q64 0 121 -24.5t99 -67t66.5 -99.5t24.5 -121v-851z" />
<glyph unicode="&#xe26;&#xe32;" horiz-adv-x="1281" d="M1154 -300h-131l-17 17v851q0 31 -11.5 57.5t-31 46t-46.5 31t-57 11.5q-17 0 -35.5 -6t-36.5 -15.5t-34.5 -22.5t-29.5 -27q9 -36 9 -75v-851l-17 -17h-131l-17 17v851q0 31 -11.5 57.5t-31.5 46.5t-46.5 31.5t-57.5 11.5q-60 0 -97.5 -14.5t-63.5 -50.5 q11 -38 13 -79.5t2 -75.5v-321q0 -36 -11.5 -67.5t-32.5 -55.5t-51 -37.5t-66 -13.5q-37 0 -66 16v150h14q8 -2 18.5 -3.5t18.5 -1.5q5 0 8 4.5t3 8.5v321q0 84 -31 159q41 104 128 165t214 61q65 0 121.5 -24.5t99.5 -66.5q48 42 103.5 66.5t114.5 24.5q64 0 121 -24.5 t99 -67t66.5 -99.5t24.5 -121v-851z" />
<glyph unicode="&#xd;" horiz-adv-x="579" />
<glyph unicode=" "  horiz-adv-x="690" />
<glyph unicode="&#x09;" horiz-adv-x="690" />
<glyph unicode="&#xa0;" horiz-adv-x="690" />
<glyph unicode="!" horiz-adv-x="410" d="M88 116q0 24 9 45t25 36.5t37 25t45 9.5t45 -9.5t37 -25t25 -36.5t9 -45t-9 -45t-25 -37t-37 -25t-45 -9t-45 9t-37 25t-25 37t-9 45zM303 363l-14 -13h-165l-14 13v774l14 13h165l14 -13v-774z" />
<glyph unicode="&#x22;" horiz-adv-x="600" d="M248 860l-10 -10h-128l-10 10v280l10 10h128l10 -10v-280zM502 860l-10 -10h-128l-10 10v280l10 10h128l10 -10v-280z" />
<glyph unicode="#" horiz-adv-x="1156" d="M1056 848l13 -14v-150l-13 -14h-201l-25 -155h134l13 -14v-150l-13 -14h-162l-52 -324l-14 -13h-150l-14 13l52 324h-180l-52 -324l-14 -13h-150l-14 13l52 324h-176l-13 14v150l13 14h204l25 155h-137l-13 14v150l13 14h166l47 289l14 13h150l14 -13l-47 -289h180 l47 289l14 13h150l14 -13l-47 -289h172zM472 515h180l25 155h-180z" />
<glyph unicode="$" horiz-adv-x="910" d="M386 4q-32 2 -68.5 5t-74.5 7t-76 9.5t-71 11.5v192l17 12q26 -5 59.5 -10.5t70.5 -10t74 -8t69 -6.5v291q-65 3 -122 29.5t-99 70.5t-66.5 102t-24.5 124t24.5 124t66.5 102t99 70.5t122 29.5v138l14 13h108l14 -13v-143q30 -2 63.5 -5.5l67 -7t66.5 -8.5t63 -10v-192 l-17 -12q-23 4 -52.5 8.5t-61.5 8.5t-65.5 7.5t-63.5 6.5v-244q64 -8 120 -38.5t97.5 -77t65 -106t23.5 -125.5q0 -67 -23.5 -126.5t-65 -105.5t-97.5 -76.5t-120 -38.5v-139l-14 -13h-108l-14 13v141zM627 349q0 51 -30 89t-75 52v-283q22 7 41.5 21t33.5 32.5t22 41 t8 47.5zM275 823q0 -24 8.5 -45.5t23.5 -38t35 -27t44 -12.5v248q-24 -3 -44 -13.5t-35 -27t-23.5 -38.5t-8.5 -46z" />
<glyph unicode="%" horiz-adv-x="1068" d="M268 13l-14 -13l-179 17l-14 13l740 1107l14 13l179 -24l14 -13zM575 200q0 -41 16 -77.5t43 -63.5t63.5 -43t77.5 -16t77.5 16t63.5 43t43 63.5t16 77.5t-16 77.5t-43 63.5t-63.5 43t-77.5 16t-77.5 -16t-63.5 -43t-43 -63.5t-16 -77.5zM702 200q0 30 21.5 51.5 t51.5 21.5t51.5 -21.5t21.5 -51.5t-21.5 -51.5t-51.5 -21.5t-51.5 21.5t-21.5 51.5zM75 950q0 -41 16 -77.5t43 -63.5t63.5 -43t77.5 -16t77.5 16t63.5 43t43 63.5t16 77.5t-16 77.5t-43 63.5t-63.5 43t-77.5 16t-77.5 -16t-63.5 -43t-43 -63.5t-16 -77.5zM202 950 q0 30 21.5 51.5t51.5 21.5t51.5 -21.5t21.5 -51.5t-21.5 -51.5t-51.5 -21.5t-51.5 21.5t-21.5 51.5z" />
<glyph unicode="&#x26;" horiz-adv-x="988" d="M889 616l13 -14v-130l-13 -14h-117q12 -20 17 -40.5t5 -47.5q0 -74 -28.5 -141t-77 -118t-114 -81t-139.5 -30t-139 30t-113 81t-76 118t-28 141q0 43 11 85.5t31 81t47.5 71.5t61.5 58q-83 78 -83 196q0 60 22.5 112.5t61.5 91.5t91.5 61.5t112.5 22.5q44 0 85 -14 t76.5 -40t64.5 -62.5t49 -80.5l-118 -79l-20 6q-21 44 -58 74.5t-79 30.5q-26 0 -48 -9.5t-39 -26.5t-26.5 -39.5t-9.5 -47.5q0 -26 9.5 -48.5t26.5 -39.5t39 -26.5t48 -9.5h103l13 -14v-137l-13 -14h-111q-37 -3 -70.5 -21t-58.5 -45.5t-39.5 -63t-14.5 -73.5q0 -40 15 -77 t41 -65.5t60.5 -45.5t74.5 -17t76 17t63.5 45.5t43.5 65.5t16 77q0 34 -6 73t-25 80l33 93h253z" />
<glyph unicode="'" horiz-adv-x="300" d="M144 804q-11 0 -20 31q-11 39 -22.5 82.5t-20.5 82.5t-14.5 70.5t-5.5 47.5q0 35 24 58.5t59 23.5t59 -23.5t24 -58.5q0 -16 -5.5 -47.5t-14.5 -70.5t-20.5 -82.5t-22.5 -82.5q-9 -31 -20 -31z" />
<glyph unicode="(" horiz-adv-x="457" d="M249 550q0 -108 4.5 -198.5t12.5 -155t18.5 -100.5t21.5 -36q9 0 20 1.5t22.5 3.5t21 4t15.5 4h18v-153q-26 -8 -51.5 -14t-47.5 -6q-45 0 -85 33t-70 109.5t-47.5 200.5t-17.5 307t17.5 307t47.5 200.5t70 109.5t85 33q22 0 47.5 -6t51.5 -14v-153h-18q-6 1 -15.5 3.5 t-21 4.5t-22.5 3.5t-20 1.5q-11 0 -21.5 -36t-18.5 -100.5t-12.5 -155t-4.5 -198.5z" />
<glyph unicode=")" horiz-adv-x="452" d="M208 550q0 108 -4.5 198.5t-12.5 155t-18.5 100.5t-21.5 36q-9 0 -20 -1.5t-22.5 -3.5t-21 -4.5t-15.5 -3.5h-18v153q26 8 51.5 14t47.5 6q45 0 85 -33t70 -109.5t47.5 -200.5t17.5 -307t-17.5 -307t-47.5 -200.5t-70 -109.5t-85 -33q-22 0 -47.5 6t-51.5 14v153h18 q6 -2 15.5 -4t21 -4t22.5 -3.5t20 -1.5q11 0 21.5 36t18.5 100.5t12.5 155t4.5 198.5z" />
<glyph unicode="*" horiz-adv-x="800" d="M399 804q-11 0 -20 31q-11 39 -22.5 82.5t-20.5 82.5t-14.5 70.5t-5.5 47.5q0 35 24 58.5t59 23.5t59 -23.5t24 -58.5q0 -16 -5.5 -47.5t-14.5 -70.5t-20.5 -82.5t-22.5 -82.5q-9 -31 -20 -31zM378 796q-5 -9 -36 -2q-40 10 -83 22t-81.5 24t-68.5 22.5t-44 18.5 q-30 17 -38 50t9 63t49.5 39t62.5 -8q14 -8 38.5 -29t54 -48t61 -58.5l60.5 -60.5q22 -23 16 -33zM420 796q-6 10 16 33q28 29 60 60.5t61.5 58.5t54 48t38.5 29q30 17 62.5 8t49.5 -39t9 -63t-38 -50q-14 -8 -44 -18.5t-68.5 -22.5t-81.5 -24t-83 -22q-31 -7 -36 2z M389 778q8 -8 -8 -36q-20 -36 -42.5 -74.5t-43.5 -72.5t-39.5 -60t-29.5 -38q-25 -24 -58.5 -24t-58.5 25t-25 58.5t24 58.5q12 11 38 29.5t60 39.5t72.5 43.5t74.5 42.5q28 16 36 8zM410 778q8 8 36 -8q36 -20 74.5 -42.5t72.5 -43.5t60 -39.5t38 -29.5q24 -25 24 -58.5 t-25 -58.5t-58.5 -25t-58.5 24q-11 12 -29.5 38t-39.5 60t-43.5 72.5t-42.5 74.5q-16 28 -8 36z" />
<glyph unicode="+" horiz-adv-x="925" d="M78 582h302v302l16 16h133l16 -16v-302h301l16 -16v-133l-16 -16h-301v-301l-16 -16h-133l-16 16v301h-302l-16 16v133z" />
<glyph unicode="," horiz-adv-x="350" d="M23 -78q14 0 31.5 2t34.5 8t32.5 16t25.5 26q-22 4 -41 16t-33 28t-22 35t-8 38q0 27 10 50.5t27.5 41t41 27.5t50.5 10q26 0 49.5 -10t41 -27.5t27.5 -41t10 -50.5v-68q0 -50 -18.5 -94.5t-54 -77.5t-87 -52t-117.5 -19l-12 13v114z" />
<glyph unicode="-" horiz-adv-x="777" d="M87 417l-16 16v124l16 16h602l16 -16v-124l-16 -16h-602z" />
<glyph unicode="." horiz-adv-x="360" d="M52 128q0 27 10 50.5t27.5 41t41 27.5t49.5 10q27 0 50.5 -10t41 -27.5t27.5 -41t10 -50.5q0 -26 -10 -49.5t-27.5 -41t-41 -27.5t-50.5 -10q-26 0 -49.5 10t-41 27.5t-27.5 41t-10 49.5z" />
<glyph unicode="/" horiz-adv-x="877" d="M258 -87l-14 -13l-179 17l-14 13l577 1257l14 13l179 -24l14 -13z" />
<glyph unicode="0" horiz-adv-x="955" d="M90 763q0 80 30.5 150.5t83 123t123 83t151.5 30.5q80 0 150.5 -30.5t123 -83t83 -123t30.5 -150.5v-376q0 -80 -30.5 -150.5t-83 -123t-123 -83t-150.5 -30.5q-81 0 -151.5 30.5t-123 83t-83 123t-30.5 150.5v376zM286 387q0 -40 15 -74.5t41 -60.5t61 -41t75 -15 t74.5 15t60.5 41t41 60.5t15 74.5v376q0 40 -15 74.5t-41 60.5t-60.5 41t-74.5 15t-75 -15t-61 -41t-41 -60.5t-15 -74.5v-376z" />
<glyph unicode="1" horiz-adv-x="860" d="M540 17l-17 -17h-166l-17 17v926q0 5 -7 9.5t-13 4.5q-21 0 -47.5 -5t-43.5 -10h-32v184q16 5 34.5 9.5t36.5 7.5t34 5t27 2q43 0 81.5 -16.5t67 -44.5t45.5 -65.5t17 -80.5v-926z" />
<glyph unicode="2" horiz-adv-x="873" d="M485 448q-50 -37 -89.5 -69t-68 -62t-44.5 -59.5t-18 -61.5q22 0 58.5 0.5t80.5 1t94 1.5t99 2.5t95 3.5t84 5l13 -13v-186q-40 -2 -88.5 -3.5t-100.5 -3t-104.5 -2t-98.5 -1t-83 -1t-59 -0.5q-39 0 -73 12t-59 34t-39.5 53t-14.5 70q0 65 23 124t63 113t94.5 103.5 t118.5 95.5q48 34 89 66t71 60.5t47.5 54t17.5 48.5q0 25 -9.5 47t-26 38t-38.5 25.5t-47 9.5q-15 0 -55 -3t-91.5 -8.5t-106.5 -12t-100 -12.5l-11 8v191q54 8 111 14.5t107.5 10.5t89 6t56.5 2q66 0 123.5 -22.5t100.5 -62t68 -94.5t25 -121q0 -64 -27 -119.5t-70.5 -105 t-97.5 -93.5t-109 -84z" />
<glyph unicode="3" horiz-adv-x="860" d="M280 514v162l17 17h160q25 0 47 11t38.5 29t26 42t9.5 50q0 25 -9.5 48.5t-26 41.5t-38.5 28.5t-47 10.5q-16 0 -57 -4t-93 -10.5t-107.5 -15t-99.5 -18.5l-13 6v194q54 10 112 18.5t109.5 14t91.5 8.5t57 3q66 0 123.5 -26t100.5 -70.5t68 -103.5t25 -125t-30 -129.5 t-87 -108.5q53 -45 85 -107.5t32 -128.5q0 -70 -26.5 -133.5t-72.5 -112t-108 -77t-132 -28.5q-17 0 -57 3t-91.5 8.5t-109.5 13.5t-112 19v194l11 5q43 -9 98.5 -17.5t108.5 -15t95 -10.5t57 -4q30 0 56 13t45.5 34.5t30.5 49.5t11 58q0 29 -10.5 55t-29.5 46t-44 32 t-54 13h-143z" />
<glyph unicode="4" horiz-adv-x="950" d="M740 25l-25 -25h-150l-25 25v282h-212q-56 0 -106 21.5t-87 58.5t-58.5 87t-21.5 107q0 33 9.5 78t26 96t37.5 105.5t44.5 106.5t47 99t44.5 84l179 -19l12 -16q-30 -54 -66 -124.5t-66.5 -144.5t-51 -144t-20.5 -121q0 -16 6 -30.5t16.5 -25t24.5 -16.5t30 -6h212v622 l25 25h150l25 -25v-622h131l17 -17v-162l-17 -17h-131v-282z" />
<glyph unicode="5" horiz-adv-x="872" d="M424 0q-17 0 -56 4.5t-88.5 13t-105 21t-106.5 29.5v190l12 8q39 -13 92 -25.5t104 -22.5t92 -16t56 -6q39 0 70 13t52.5 35.5t32.5 52.5t11 64q0 42 -15.5 75t-51 55.5t-93 34.5t-141.5 12q-43 0 -81 16.5t-66 44.5t-44 66t-16 81v197q0 43 16 80.5t44 65.5t66 44.5 t81 16.5q41 0 93 -1.5t110.5 -4t122 -6.5t127.5 -9v-188l-12 -11q-66 6 -134.5 10.5t-128.5 7.5t-107 4.5t-71 1.5q-11 0 -11 -11v-197q0 -12 11 -12q142 0 237.5 -26.5t153 -75t82 -117.5t24.5 -154q0 -75 -23 -140.5t-69 -114.5t-113.5 -77.5t-156.5 -28.5z" />
<glyph unicode="6" horiz-adv-x="875" d="M74 361q0 82 24 165t64 161.5t92 150.5t109 132.5t114 106.5t107 73l160 -87l4 -21q-40 -26 -88.5 -64.5t-97.5 -83.5t-94 -92t-77 -88q8 5 22.5 6.5t21.5 1.5q75 0 140.5 -28.5t114.5 -77t77.5 -114.5t28.5 -141t-28.5 -140.5t-77.5 -114.5t-114.5 -77.5t-140.5 -28.5 t-140.5 28.5t-114.5 77.5t-77.5 114.5t-28.5 140.5zM270 361q0 -34 13 -64t35.5 -52.5t52.5 -35.5t64 -13t64 13t52.5 35.5t35.5 52.5t13 64t-13 64t-35.5 52.5t-52.5 35.5t-64 13t-64 -13t-52.5 -35.5t-35.5 -52.5t-13 -64z" />
<glyph unicode="7" horiz-adv-x="850" d="M86 36l458 783q40 69 46.5 102t-14.5 33q-17 0 -49 -1t-74 -2.5t-91 -3.5t-100 -4.5t-100 -5t-91 -5.5l-9 9v189q66 3 139 6.5t142.5 6.5t130.5 5t102 2q43 0 81 -16.5t66 -44.5t44.5 -65.5t16.5 -80.5q0 -30 -4.5 -55t-13 -49t-20.5 -48.5t-28 -52.5l-418 -738l-206 24z " />
<glyph unicode="8" horiz-adv-x="880" d="M440 1150q87 0 148.5 -24.5t101 -67t57.5 -99.5t18 -121q0 -60 -23 -113t-65 -95q30 -24 53.5 -55.5t40 -67.5t25 -75t8.5 -78q0 -72 -24.5 -136.5t-71.5 -112.5t-114.5 -76.5t-153.5 -28.5t-153.5 28.5t-114.5 76.5t-71.5 112.5t-24.5 136.5q0 39 8.5 78t25 75t40 67.5 t53.5 55.5q-42 42 -65 95t-23 113q0 64 18 121t57.5 99.5t101 67t148.5 24.5zM440 196q39 0 70 13t53 34.5t33.5 50t11.5 60.5q0 31 -9.5 61t-30 54t-52 38.5t-76.5 14.5t-76.5 -14.5t-52 -38.5t-30 -54t-9.5 -61q0 -32 11.5 -60.5t33.5 -50t53 -34.5t70 -13zM440 954 q-29 0 -53 -9.5t-41 -25t-26 -36.5t-9 -45t9 -45t26 -36.5t41 -25t53 -9.5t53 9.5t41 25t26 36.5t9 45t-9 45t-26 36.5t-41 25t-53 9.5z" />
<glyph unicode="9" horiz-adv-x="852" d="M786 789q0 -82 -24 -165t-64 -161.5t-92 -150.5t-109 -132.5t-114 -106.5t-107 -73l-160 87l-4 21q40 25 88.5 64t97.5 84t94 92t77 88q-8 -5 -22.5 -6.5t-21.5 -1.5q-75 0 -140.5 28.5t-114.5 77t-77.5 114.5t-28.5 141t28.5 140.5t77.5 114.5t114.5 77.5t140.5 28.5 t140.5 -28.5t114.5 -77.5t77.5 -114.5t28.5 -140.5zM590 789q0 34 -13 64t-35.5 52.5t-52.5 35.5t-64 13t-64 -13t-52.5 -35.5t-35.5 -52.5t-13 -64t13 -64t35.5 -52.5t52.5 -35.5t64 -13t64 13t52.5 35.5t35.5 52.5t13 64z" />
<glyph unicode=":" horiz-adv-x="387" d="M67 678q0 27 10 50.5t27.5 41t41 27.5t49.5 10q27 0 50.5 -10t41 -27.5t27.5 -41t10 -50.5q0 -26 -10 -49.5t-27.5 -41t-41 -27.5t-50.5 -10q-26 0 -49.5 10t-41 27.5t-27.5 41t-10 49.5zM67 128q0 27 10 50.5t27.5 41t41 27.5t49.5 10q27 0 50.5 -10t41 -27.5t27.5 -41 t10 -50.5q0 -26 -10 -49.5t-27.5 -41t-41 -27.5t-50.5 -10q-26 0 -49.5 10t-41 27.5t-27.5 41t-10 49.5z" />
<glyph unicode=";" horiz-adv-x="407" d="M77 678q0 27 10 50.5t27.5 41t41 27.5t49.5 10q27 0 50.5 -10t41 -27.5t27.5 -41t10 -50.5q0 -26 -10 -49.5t-27.5 -41t-41 -27.5t-50.5 -10q-26 0 -49.5 10t-41 27.5t-27.5 41t-10 49.5zM57 -78q14 0 31.5 2t34.5 8t32.5 16t25.5 26q-22 4 -41 16t-33 28t-22 35t-8 38 q0 27 10 50.5t27.5 41t41 27.5t50.5 10q26 0 49.5 -10t41 -27.5t27.5 -41t10 -50.5v-68q0 -50 -18.5 -94.5t-54 -77.5t-87 -52t-117.5 -19l-12 13v114z" />
<glyph unicode="&#x3c;" horiz-adv-x="713" d="M248 451l399 -268v-178l-21 -5l-415 274q-33 22 -61.5 42.5t-48.5 41.5t-31.5 44t-11.5 49t11.5 49t31.5 44t48.5 41.5t61.5 42.5l415 274l21 -5v-178z" />
<glyph unicode="=" horiz-adv-x="920" d="M76 523l-16 16v110l16 16h768l16 -16v-110l-16 -16h-768zM76 258l-16 16v110l16 16h768l16 -16v-110l-16 -16h-768z" />
<glyph unicode="&#x3e;" horiz-adv-x="711" d="M66 719v178l21 5l415 -274q33 -22 61.5 -42.5t48.5 -41.5t31.5 -44t11.5 -49t-11.5 -49t-31.5 -44t-48.5 -41.5t-61.5 -42.5l-415 -274l-21 5v178l399 268z" />
<glyph unicode="?" horiz-adv-x="800" d="M328 352v67q0 28 12 62t32 68.5t45.5 68.5t51.5 63q33 38 57 70t24 68q0 34 -11.5 64t-32 52.5t-48.5 35.5t-62 13t-64 -13t-52.5 -35.5t-35.5 -52.5t-13 -64q0 -15 3 -34.5t7 -30.5l-7 -21l-149 -16q-8 24 -13.5 50t-5.5 52q0 69 26 129t70.5 105t104.5 71t129 26 t129.5 -26t105 -71t70.5 -105t26 -129q0 -37 -12 -71.5t-31.5 -66.5t-43 -61t-47.5 -56q-17 -18 -32.5 -39.5t-27.5 -43.5t-19.5 -42t-7.5 -35v-52l-19 -19h-139zM301 116q0 24 9 45t25 36.5t37 25t45 9.5t45 -9.5t37 -25t25 -36.5t9 -45t-9 -45t-25 -37t-37 -25t-45 -9 t-45 9t-37 25t-25 37t-9 45z" />
<glyph unicode="@" horiz-adv-x="1293" d="M482 580q0 -30 11 -56t30.5 -45.5t46 -30.5t56.5 -11t56 11t45.5 30.5t31 45.5t11.5 56t-11.5 56t-31 45.5t-45.5 30.5t-56 11t-56.5 -11t-46 -30.5t-30.5 -45.5t-11 -56zM893 36q-57 -20 -113.5 -28t-128.5 -8q-120 0 -224.5 45t-182.5 123t-123 182.5t-45 224.5 q0 119 45 223.5t123 182.5t182.5 123.5t224.5 45.5q119 0 223.5 -45.5t182.5 -123.5t123.5 -182.5t45.5 -223.5q0 -64 -18 -124t-53 -106.5t-88 -75t-122 -28.5q-26 0 -51 8.5t-46.5 23t-38.5 35t-26 44.5q-33 -30 -73.5 -48t-83.5 -18q-63 0 -118 22.5t-96 61.5t-64.5 93 t-23.5 117t23.5 116.5t64.5 93t96 62t118 22.5q38 0 75 -16t69 -41v43l14 14h117l13 -14v-433q0 -18 14.5 -26.5t25.5 -8.5q17 0 37 11.5t37 34.5t28 57.5t11 79.5q0 86 -31.5 162t-87 132.5t-131.5 89t-166 32.5q-92 0 -169 -32.5t-132 -89t-85.5 -132.5t-30.5 -162 t32.5 -162t89 -132.5t132.5 -89t163 -32.5q33 0 58.5 1t47 3t40.5 6.5t39 11.5l8 -3z" />
<glyph unicode="A" horiz-adv-x="1054" d="M926 0h-166l-18 18v389h-430v-389l-18 -18h-166l-18 18v715q0 86 33 162t89.5 132.5t132.5 89.5t162 33t162 -33t132.5 -89.5t89.5 -132.5t33 -162v-715zM742 733q0 45 -17 84t-46 68.5t-68 46.5t-84 17t-84 -17t-68.5 -46.5t-46 -68.5t-16.5 -84v-125h430v125z" />
<glyph unicode="B" horiz-adv-x="1035" d="M898 823q0 -60 -21 -114t-69 -97q64 -48 100 -116.5t36 -146.5q0 -72 -27.5 -135.5t-75 -111t-111 -75t-135.5 -27.5h-294q-39 0 -74 15t-61 41t-41 60.5t-15 74.5v768q0 40 15 74.5t41 60.5t61 41t74 15h271q67 0 126.5 -25.5t104 -70t70 -104t25.5 -127.5zM312 699h260 q26 0 49 9.5t40 26.5t26.5 39.5t9.5 48.5t-9.5 49t-26.5 40t-40 27t-49 10h-248q-5 0 -8.5 -4t-3.5 -10v-236zM595 201q30 0 57 11.5t47.5 32t32 47.5t11.5 57q0 31 -11.5 58t-32 47t-47.5 31.5t-57 11.5h-283v-282q0 -6 3.5 -10t8.5 -4h271z" />
<glyph unicode="C" horiz-adv-x="947" d="M499 201q35 0 78.5 8.5t89 23t91.5 33t86 39.5l18 -4v-204q-43 -20 -86 -37.5t-87.5 -30.5t-91.5 -21t-98 -8q-86 0 -162 33t-132.5 89.5t-89 132.5t-32.5 162v316q0 86 32.5 162t89 132.5t132.5 89.5t162 33q51 0 98 -8t91.5 -21t87.5 -31t86 -37v-204l-18 -4 q-40 21 -86 39.5t-91.5 33t-89 23t-78.5 8.5q-45 0 -84 -17t-68 -46.5t-45.5 -68.5t-16.5 -84v-316q0 -45 16.5 -84t45.5 -68.5t68 -46.5t84 -17z" />
<glyph unicode="D" horiz-adv-x="1060" d="M984 580q0 -128 -36.5 -234.5t-99.5 -183t-147 -119.5t-179 -43h-221q-39 0 -74 15t-61 41t-41 60.5t-15 74.5v768q0 40 15 74.5t41 60.5t61 41t74 15h221q95 0 179 -42.5t147 -118.5t99.5 -180.5t36.5 -228.5zM312 215q0 -14 13 -14h197q54 0 101.5 32.5t83 85.5 t56 121.5t20.5 139.5q0 67 -20.5 133.5t-56 118.5t-83 84.5t-101.5 32.5h-197q-13 0 -13 -14v-720z" />
<glyph unicode="E" horiz-adv-x="972" d="M325 948q-13 0 -13 -14v-235h405l18 -18v-166l-18 -18h-405v-281q0 -14 13 -14h549l18 -18v-166l-18 -18h-573q-40 0 -74.5 15t-60.5 41t-41 60.5t-15 74.5v768q0 40 15 74.5t41 60.5t60.5 41t74.5 15h573l18 -18v-166l-18 -18h-549z" />
<glyph unicode="F" horiz-adv-x="952" d="M294 0h-166l-18 18v941q0 40 15 74.5t41 60.5t60.5 41t74.5 15h573l18 -18v-166l-18 -18h-549q-13 0 -13 -14v-235h405l18 -18v-166l-18 -18h-405v-479z" />
<glyph unicode="G" horiz-adv-x="990" d="M514 671h194q60 0 100 -26t64.5 -65t34.5 -83t10 -80q0 -86 -32.5 -162t-89 -132.5t-132.5 -89.5t-162 -33t-162 33t-133 89.5t-90 132.5t-33 162v316q0 86 33 162t90 132.5t133 89.5t162 33q51 0 98 -8t91.5 -21t87.5 -31t86 -37v-204l-18 -4q-40 21 -86 39.5t-91.5 33 t-89 23t-78.5 8.5q-45 0 -84.5 -17t-68.5 -46.5t-46 -68.5t-17 -84v-316q0 -45 17 -84t46 -68.5t68.5 -46.5t84.5 -17t84 17t68 46.5t46 68.5t17 84q0 4 -1 13t-3.5 18t-7 15.5t-12.5 6.5h-178l-18 18v166l18 18v-1z" />
<glyph unicode="H" horiz-adv-x="1054" d="M944 1132v-1114l-18 -18h-166l-18 18v479h-430v-479l-18 -18h-166l-18 18v1114l18 18h166l18 -18v-433h430v433l18 18h166z" />
<glyph unicode="I" horiz-adv-x="422" d="M312 18l-18 -18h-166l-18 18v1114l18 18h166l18 -18v-1114z" />
<glyph unicode="J" horiz-adv-x="850" d="M545 1132l18 18h166l18 -18v-760q0 -77 -29.5 -144.5t-80 -118t-118.5 -80t-145 -29.5q-67 0 -141.5 28t-162.5 101v218l16 1q31 -27 72.5 -53.5t82.5 -47.5t77 -33.5t56 -12.5q35 0 66 13.5t54.5 36.5t37 54t13.5 67v760z" />
<glyph unicode="K" horiz-adv-x="1052" d="M934 0h-166l-18 18v346q0 35 -17 66.5t-44.5 56.5t-62.5 41t-71 20q-48 -20 -114 -33t-129 -17v-480l-18 -18h-166l-18 18v1114l18 18h166l18 -18v-432q106 8 182 48.5t124 100.5t69.5 132t18.5 143l14 12l183 16q4 -29 5.5 -54t1.5 -51q0 -88 -39.5 -182.5 t-116.5 -172.5q44 -25 80.5 -60t62.5 -77.5t40.5 -91t14.5 -99.5v-346z" />
<glyph unicode="L" horiz-adv-x="892" d="M818 202l18 -18v-166l-18 -18h-517q-39 0 -74 15t-61 41t-41 60.5t-15 74.5v941l18 18h166l18 -18v-916q0 -6 3.5 -10t8.5 -4h494z" />
<glyph unicode="M" horiz-adv-x="1302" d="M990 891l-241 -650q-6 -17 -17.5 -28.5t-25 -18.5t-28 -10t-27.5 -3t-27.5 3t-28 10t-25 18.5t-17.5 28.5l-241 650v-873l-18 -18h-166l-18 18v941q0 40 15 74.5t40.5 60.5t60.5 41t74 15q40 0 69.5 -15t52 -39.5t38.5 -55.5t29 -63l162 -426l162 426q12 32 28.5 63 t39 55.5t52.5 39.5t69 15t74 -15t60.5 -41t40.5 -60.5t15 -74.5v-941l-18 -18h-166l-18 18v873z" />
<glyph unicode="N" horiz-adv-x="1123" d="M1013 1132v-941q0 -40 -15 -74.5t-41 -60.5t-61 -41t-74 -15q-41 0 -70 15t-50.5 39t-37.5 54.5t-30 62.5l-322 729v-882l-18 -18h-166l-18 18v941q0 40 15 74.5t41 60.5t61 41t75 15t69 -15t50.5 -39t37.5 -55t30 -62l322 -730v883l18 18h166z" />
<glyph unicode="O" horiz-adv-x="1064" d="M994 462q0 -95 -36.5 -179t-99 -147t-146.5 -99.5t-180 -36.5q-95 0 -179 36.5t-147 99.5t-99.5 147t-36.5 179v226q0 95 36.5 179t99.5 147t147 99.5t179 36.5q96 0 180 -36.5t146.5 -99.5t99 -147t36.5 -179v-226zM792 688q0 54 -20.5 101.5t-55.5 83t-82.5 56 t-101.5 20.5t-101.5 -20.5t-82.5 -56t-55.5 -83t-20.5 -101.5v-226q0 -54 20.5 -101.5t55.5 -83t82.5 -56t101.5 -20.5t101.5 20.5t82.5 56t55.5 83t20.5 101.5v226z" />
<glyph unicode="P" horiz-adv-x="952" d="M110 18v941q0 40 15 74.5t41 60.5t60.5 41t74.5 15h271q67 0 127 -25.5t104 -70t70 -104t26 -127.5t-26 -127t-70 -103.5t-104 -70t-127 -25.5h-260v-479l-18 -18h-166zM325 949q-13 0 -13 -14v-236h260q26 0 49 9.5t40 26.5t26.5 39.5t9.5 48.5t-9.5 49t-26.5 40t-40 27 t-49 10h-247z" />
<glyph unicode="Q" horiz-adv-x="1106" d="M803 100q-56 -42 -124 -71t-137 -29q-95 0 -179 36.5t-147 99.5t-99.5 147t-36.5 179v226q0 95 36.5 179t99.5 147t147 99.5t179 36.5q96 0 180 -36.5t146.5 -99.5t99 -147t36.5 -179v-226q0 -54 -15 -103t-43 -95q28 -45 43 -92.5t15 -100.5q0 -9 -2 -31t-7 -40h-193v17 q1 12 1.5 37.5t-0.5 45.5zM802 688q0 54 -20.5 101.5t-55.5 83t-82.5 56t-101.5 20.5t-101.5 -20.5t-82.5 -56t-55.5 -83t-20.5 -101.5v-226q0 -54 20.5 -101.5t55.5 -83t82.5 -56t101.5 -20.5q51 0 95 16.5t78 47.5q-35 32 -75.5 49t-92.5 17q-12 0 -28.5 -5t-27.5 -10h-14 v199q19 9 39 13t31 4q75 0 137 -20t118 -60v236z" />
<glyph unicode="R" horiz-adv-x="999" d="M899 18l-18 -18h-166l-18 18v295q0 36 -17.5 69.5t-44.5 59t-61 40.5t-67 15h-195v-479l-18 -18h-166l-18 18v941q0 40 15 74.5t41 60.5t60.5 41t74.5 15h271q67 0 127 -25.5t104 -70t70 -104t26 -127.5q0 -82 -35.5 -146t-103.5 -104q73 -51 106 -120.5t33 -139.5v-295z M325 949q-13 0 -13 -14v-236h260q26 0 49 9.5t40 26.5t26.5 39.5t9.5 48.5t-9.5 49t-26.5 40t-40 27t-49 10h-247z" />
<glyph unicode="S" horiz-adv-x="901" d="M471 201q30 0 57 11.5t47.5 32t32 47.5t11.5 57q0 31 -11.5 58t-32 47t-47.5 31.5t-57 11.5h-80q-67 0 -126 25.5t-103.5 70t-70 103.5t-25.5 127t25.5 127.5t70 104t103.5 70t126 25.5q18 0 61 -2.5t97.5 -7t114 -11.5t110.5 -16v-192l-17 -12q-39 8 -94 15t-110 12.5 t-99.5 9t-62.5 3.5q-26 0 -48.5 -10t-39.5 -27t-26.5 -40t-9.5 -49t9.5 -48.5t26.5 -39.5t39.5 -26.5t48.5 -9.5h80q72 0 135.5 -27.5t111 -75.5t75 -111.5t27.5 -135.5t-27.5 -135.5t-75 -111t-111 -75t-135.5 -27.5q-18 0 -61 2.5t-97.5 7t-114 11.5t-110.5 16v192l17 12 q39 -8 94 -15t110 -12.5t99.5 -9t62.5 -3.5z" />
<glyph unicode="T" horiz-adv-x="942" d="M870 1150l18 -18v-166l-18 -18h-298v-930l-18 -18h-166l-18 18v930h-298l-18 18v166l18 18h798z" />
<glyph unicode="U" horiz-adv-x="1039" d="M519 201q44 0 85 17t72.5 46.5t50 68.5t18.5 84v715l18 18h166l18 -18v-715q0 -86 -34.5 -162t-93 -132.5t-136.5 -89.5t-164 -33t-164 33t-136.5 89.5t-93 132.5t-34.5 162v715l18 18h166l18 -18v-715q0 -45 18.5 -84t50 -68.5t72.5 -46.5t85 -17z" />
<glyph unicode="V" horiz-adv-x="1070" d="M535 204l285 936l16 10h176l14 -9l-294 -966q-26 -85 -74 -130t-123 -45t-123 45t-74 130l-294 966l14 9h176l16 -10z" />
<glyph unicode="W" horiz-adv-x="1482" d="M1009 202q31 0 61 12t53.5 33.5t38 53t14.5 70.5v761l18 18h166l18 -18v-761q0 -82 -29.5 -150.5t-80 -117.5t-117.5 -76t-142 -27q-79 0 -148 38t-120 102q-51 -64 -120.5 -102t-147.5 -38q-75 0 -142 27t-117.5 76t-80 117.5t-29.5 150.5v761l18 18h166l18 -18v-761 q0 -39 14.5 -70.5t38 -53t53.5 -33.5t61 -12t61 12t53.5 33.5t38 53t14.5 70.5v761l18 18h166l18 -18v-761q0 -39 14.5 -70.5t38 -53t53.5 -33.5t61 -12z" />
<glyph unicode="X" horiz-adv-x="1044" d="M747 281q0 45 -18.5 85t-49.5 70.5t-71.5 48t-85.5 17.5t-85.5 -17.5t-71.5 -48t-49.5 -70.5t-18.5 -85q0 -13 1.5 -44t4 -68.5t5.5 -75.5t6 -65l-9 -13l-189 -16q-5 37 -9 82.5t-6.5 87t-4 72.5t-1.5 40q0 95 40 177t112 139q-72 58 -112 140t-40 177v218l18 18h166 l18 -18v-218q0 -45 18.5 -85t49.5 -70t71.5 -47.5t85.5 -17.5t85.5 17.5t71.5 47.5t49.5 70t18.5 85q0 15 -2 42t-5 57t-6.5 59t-6.5 50l11 13l190 16q5 -36 9 -74.5t6.5 -71.5t4 -57.5t1.5 -33.5q0 -96 -40.5 -177.5t-112.5 -139.5q72 -57 112.5 -138.5t40.5 -177.5v-263 l-18 -18h-166l-18 18v263z" />
<glyph unicode="Y" horiz-adv-x="972" d="M385 508q-66 18 -123.5 57t-100 92.5t-67 119t-24.5 137.5v218l18 18h166l18 -18v-218q0 -45 16.5 -84t45.5 -68.5t68 -46t84 -16.5t84 16.5t68 46t45.5 68.5t16.5 84v218l18 18h166l18 -18v-218q0 -72 -24.5 -137.5t-67 -119t-100 -92.5t-123.5 -57v-490l-18 -18h-166 l-18 18v490z" />
<glyph unicode="Z" horiz-adv-x="993" d="M359 0q-58 0 -109 22t-89.5 60.5t-60.5 89.5t-22 109q0 40 17.5 79t47 76t68 71.5t80 67t84 62.5t80.5 58q120 88 187.5 141t67.5 78q0 14 -10 24.5t-25 10.5q-20 0 -71 -0.5t-123.5 -2t-162 -4.5t-185.5 -7l-10 9v195q99 3 190 5.5t165 3.5t125.5 1.5t71.5 0.5 q49 0 92 -18.5t75 -50.5t50.5 -75t18.5 -92q0 -58 -34 -109.5t-86 -98t-112.5 -88t-114.5 -80.5q-133 -95 -209 -157.5t-76 -99.5q0 -33 23.5 -56.5t56.5 -23.5q31 0 87 1t127.5 2.5t154 4.5t167.5 7l16 -15v-190q-87 -3 -172.5 -5.5t-159.5 -3.5t-131.5 -1.5t-88.5 -0.5z " />
<glyph unicode="[" horiz-adv-x="475" d="M275 120q0 -23 16 -41.5t39 -18.5q20 0 41 4t36 8h22v-152q-26 -8 -51.5 -14t-47.5 -6q-45 0 -85 17.5t-70 47.5t-47.5 70t-17.5 85v860q0 45 17.5 85t47.5 70t70 47.5t85 17.5q22 0 47.5 -6t51.5 -14v-152h-22q-15 4 -36 8t-41 4q-23 0 -39 -18.5t-16 -41.5v-860z" />
<glyph unicode="\" horiz-adv-x="877" d="M43 1163l14 13l179 24l14 -13l577 -1257l-14 -13l-179 -17l-14 13z" />
<glyph unicode="]" horiz-adv-x="475" d="M200 980q0 23 -16 41.5t-39 18.5q-20 0 -41 -4t-36 -8h-22v152q26 8 51.5 14t47.5 6q45 0 85 -17.5t70 -47.5t47.5 -70t17.5 -85v-860q0 -45 -17.5 -85t-47.5 -70t-70 -47.5t-85 -17.5q-22 0 -47.5 6t-51.5 14v152h22q15 -4 36 -8t41 -4q23 0 39 18.5t16 41.5v860z" />
<glyph unicode="^" horiz-adv-x="980" d="M223 561h-178l-5 21l274 415q22 33 42.5 61.5t41.5 48.5t44 31.5t49 11.5t49 -11.5t44 -31.5t41.5 -48.5t42.5 -61.5l274 -415l-5 -21h-178l-268 399z" />
<glyph unicode="_" horiz-adv-x="900" d="M66 -142l-16 16v110l16 16h768l16 -16v-110l-16 -16h-768z" />
<glyph unicode="`" horiz-adv-x="400" d="M354 895q-8 -8 -36 8q-36 20 -74.5 42.5t-72.5 43.5t-60 39.5t-38 29.5q-24 25 -24 58.5t25 58.5t58.5 25t58.5 -24q11 -12 29.5 -38t39.5 -60t43.5 -72.5t42.5 -74.5q16 -28 8 -36z" />
<glyph unicode="a" horiz-adv-x="812" d="M513 294q0 24 -12.5 42t-32 30.5t-43.5 19t-48 6.5q-23 0 -44 -7t-37.5 -20t-26.5 -31t-10 -40t10 -42t26.5 -35t37.5 -24t44 -9q24 0 48 8.5t43.5 23.5t32 35t12.5 43zM80 671q22 47 54 85.5t70.5 65.5t82.5 42t90 15q66 0 125 -24.5t103.5 -67.5t70.5 -100t26 -123 v-380q10 0 21.5 2t16.5 4h21v-167q-11 -8 -26.5 -15.5t-38.5 -7.5q-45 0 -83 24.5t-63 60.5q-38 -49 -81.5 -67t-91.5 -18q-60 0 -114 23t-94.5 63t-64.5 93.5t-24 114.5q0 60 24 110.5t64.5 87t94.5 57t114 20.5q35 0 69.5 -11t66.5 -41v47q0 27 -11 50t-30 40t-43.5 26.5 t-51.5 9.5q-20 0 -42 -7.5t-43 -20t-38 -29t-27 -34.5l-13 -5z" />
<glyph unicode="b" horiz-adv-x="865" d="M303 825q32 26 70.5 40.5t72.5 14.5q65 0 126.5 -24.5t109 -67.5t76 -100t28.5 -123v-248q0 -66 -28.5 -123.5t-76 -100.5t-109 -68t-126.5 -25q-48 0 -97.5 21.5t-84.5 63.5q-26 -42 -64 -63.5t-84 -21.5q-23 0 -38.5 7.5t-26.5 15.5v167h21q5 -2 16.5 -4t21.5 -2v1003 l14 13h165l14 -13v-362zM446 189q27 0 54 10t48.5 27.5t35 40.5t13.5 50v248q0 27 -13.5 50t-35 40t-48.5 26.5t-54 9.5q-26 0 -51 -9.5t-45 -26t-33 -38.5t-14 -47v-254q0 -27 12.5 -50t32.5 -40t45.5 -27t52.5 -10z" />
<glyph unicode="c" horiz-adv-x="727" d="M410 189q54 0 117 20t124 57l15 -8v-185q-32 -16 -60.5 -29.5t-58.5 -23t-63.5 -15t-73.5 -5.5q-66 0 -125.5 25t-105.5 67.5t-73 100t-27 123.5v248q0 66 27 123.5t73 100t105.5 67.5t125.5 25q40 0 73.5 -5.5t63.5 -15t58.5 -23t60.5 -29.5v-185l-15 -8q-61 37 -124 57 t-117 20q-26 0 -51 -10t-44.5 -27t-31.5 -40t-12 -50v-248q0 -27 12 -50t31.5 -40t44.5 -27t51 -10z" />
<glyph unicode="d" horiz-adv-x="865" d="M562 1187l14 13h165l14 -13v-1003q10 0 21.5 2t16.5 4h21v-167q-11 -8 -26.5 -15.5t-38.5 -7.5q-46 0 -84 21.5t-64 63.5q-35 -42 -84.5 -63.5t-97.5 -21.5q-65 0 -126.5 25t-109 68t-76 100.5t-28.5 123.5v248q0 66 28.5 123t76 100t109 67.5t126.5 24.5 q34 0 72.5 -14.5t70.5 -40.5v362zM419 189q27 0 52.5 10t45.5 27t32.5 40t12.5 50v254q-1 25 -14 47t-33 38.5t-45.5 26t-50.5 9.5q-27 0 -54 -9.5t-48.5 -26.5t-35 -40t-13.5 -50v-248q0 -27 13.5 -50t35 -40.5t48.5 -27.5t54 -10z" />
<glyph unicode="e" horiz-adv-x="805" d="M267 375v-59q0 -27 11.5 -50t30 -40t43 -27t51.5 -10q26 0 54.5 10t54 27t45 39.5t26.5 47.5l14 7l145 -55q-18 -58 -53.5 -106.5t-81.5 -84t-99 -55t-105 -19.5q-66 0 -124.5 25t-103 67.5t-70.5 100t-26 123.5v248q0 66 26 123.5t70.5 100t103 67.5t124.5 25t125.5 -25 t104.5 -67.5t71.5 -100t26.5 -123.5q0 -44 -16.5 -78.5t-45 -59.5t-67 -38t-81.5 -13h-254zM543 564q0 27 -12 50t-31.5 40t-44.5 27t-52 10t-51.5 -10t-43 -27t-30 -40t-11.5 -50v-21h254q9 0 15.5 6t6.5 15z" />
<glyph unicode="f" horiz-adv-x="602" d="M368 0h-164l-14 13v659h-131l-13 14v155l13 14h131v118q0 47 18.5 88.5t50 72t73.5 48.5t89 18q40 0 72.5 -15t58.5 -31v-180l-17 -1q-10 8 -25.5 15t-32 12.5t-32 8.5t-24.5 3q-16 0 -27.5 -11t-11.5 -28v-118h157l13 -14v-155l-13 -14h-157v-659z" />
<glyph unicode="g" horiz-adv-x="865" d="M755 -84q0 -65 -26.5 -122.5t-71.5 -100.5t-104.5 -68t-125.5 -25q-53 0 -104.5 20t-96.5 55t-79.5 84t-52.5 107l149 54l16 -3q10 -25 29.5 -48t42.5 -41t48 -28.5t48 -10.5q27 0 51 10t43 27t30 40t11 50v139q-32 -26 -70.5 -40.5t-72.5 -14.5q-65 0 -126.5 24.5 t-109 67.5t-76 100t-28.5 123v248q0 66 28.5 123.5t76 100.5t109 68t126.5 25q48 0 97.5 -21.5t84.5 -63.5q26 42 64 63.5t84 21.5q15 0 28.5 -6t22.5 -14v-167h-21q-11 3 -24 3v-780zM419 691q-27 0 -54 -10t-48.5 -27.5t-35 -40.5t-13.5 -50v-248q0 -27 13.5 -50t35 -40 t48.5 -26.5t54 -9.5q25 0 50.5 9.5t45.5 26t33 38.5t14 47v254q0 27 -12.5 50t-32.5 40t-45.5 27t-52.5 10z" />
<glyph unicode="h" horiz-adv-x="887" d="M110 1187l14 13h165l14 -13v-372q17 15 38 27t43 20.5t43 13t38 4.5q66 0 126 -25t105.5 -67.5t73 -100t27.5 -123.5v-551l-14 -13h-165l-14 13v551q0 27 -11.5 50t-31 40t-44.5 27t-52 10q-26 0 -54.5 -9.5t-52 -25.5t-39.5 -38t-16 -47v-558l-14 -13h-165l-14 13v1174z " />
<glyph unicode="i" horiz-adv-x="428" d="M93 1084q0 24 9 45t25 37t37 25t45 9t45 -9t37 -25t25 -37t9 -45t-9 -45t-25 -36.5t-37 -25t-45 -9.5t-45 9.5t-37 25t-25 36.5t-9 45zM308 184q6 0 23 2.5t28 6.5h20v-167q-18 -8 -43 -17t-68 -9q-33 0 -61 11.5t-48.5 33t-32 52.5t-11.5 71v528q-6 0 -20 -1.5t-22 -3.5 h-20v167q18 8 45 15t57 7q33 0 61 -11.5t48.5 -33t32 -52.5t11.5 -71v-528z" />
<glyph unicode="j" horiz-adv-x="523" d="M220 867l14 13h165l14 -13v-951q0 -65 -26.5 -122.5t-71.5 -100.5t-104.5 -68t-125.5 -25q-16 0 -36 2t-41 6t-41.5 9.5t-36.5 12.5v194l14 2q14 -8 33 -14.5t38.5 -11.5t38 -8t31.5 -3q27 0 51.5 10t43 27t29.5 40t11 50v951zM198 1084q0 24 9 45t25 37t37 25t45 9 t45 -9t37 -25t25 -37t9 -45t-9 -45t-25 -36.5t-37 -25t-45 -9.5t-45 9.5t-37 25t-25 36.5t-9 45z" />
<glyph unicode="k" horiz-adv-x="864" d="M774 13l-14 -13h-165l-14 13v303q0 19 -11 36.5t-29.5 32t-42 24t-48.5 13.5q-32 -10 -72 -16t-75 -8v-385l-14 -13h-165l-14 13v1174l14 13h165l14 -13v-598q126 12 187.5 81t61.5 190l16 12l175 8q0 -69 -7 -122.5t-21.5 -95t-36.5 -73t-52 -56.5q31 -15 58 -36.5 t47 -48.5t31.5 -60t11.5 -72v-303z" />
<glyph unicode="l" horiz-adv-x="428" d="M308 184q6 0 23 2.5t28 6.5h20v-167q-18 -8 -43 -17t-68 -9q-33 0 -61 11.5t-48.5 33t-32 52.5t-11.5 71v848q-6 0 -20 -1.5t-22 -3.5h-20v167q18 8 45 15t57 7q33 0 61 -11.5t48.5 -33t32 -52.5t11.5 -71v-848z" />
<glyph unicode="m" horiz-adv-x="1260" d="M842 880q70 0 127 -25.5t97 -67.5t62 -96t22 -110v-560l-21 -21h-150l-22 21v560q0 24 -8.5 44t-24 35t-36.5 23t-46 8t-46 -8t-36.5 -23t-24 -35t-8.5 -44v-560l-21 -21h-151l-21 21v560q0 24 -8.5 44t-24 35t-36.5 23t-46 8t-46 -8t-36.5 -23t-24 -35t-8.5 -44v-560 l-22 -21h-149l-22 21v666q-13 8 -26.5 10t-29.5 0h-17v167q10 6 25 11t32 5q46 0 84 -21t64 -59q34 30 76 55t100 25q65 0 118 -22t93 -59q40 37 93 59t119 22z" />
<glyph unicode="n" horiz-adv-x="879" d="M769 21l-22 -21h-149l-22 21v543q0 27 -11 50t-29.5 40t-43 27t-51.5 10t-51.5 -10t-44 -27t-31 -40t-11.5 -50v-543l-22 -21h-149l-22 21v673q-11 6 -23 5.5t-21 -2.5h-17v167q10 6 25 11t32 5q46 0 84 -21t64 -59q18 21 41 36t47.5 24.5t50 14.5t48.5 5q71 0 131.5 -25 t104 -67.5t68 -100t24.5 -123.5v-543z" />
<glyph unicode="o" horiz-adv-x="881" d="M80 519q0 75 28.5 141t77.5 114.5t114.5 77t139.5 28.5t140 -28.5t115 -77t77.5 -114.5t28.5 -141v-159q0 -75 -28.5 -140.5t-77.5 -114t-115 -77t-140 -28.5t-139.5 28.5t-114.5 77t-77.5 114t-28.5 140.5v159zM269 360q0 -36 13.5 -67t36.5 -54t54 -36.5t67 -13.5 t67.5 13.5t54.5 36.5t36.5 54t13.5 67v159q0 36 -13.5 67.5t-36.5 54.5t-54.5 36.5t-67.5 13.5t-67 -13.5t-54 -36.5t-36.5 -54.5t-13.5 -67.5v-159z" />
<glyph unicode="p" horiz-adv-x="865" d="M303 -387l-14 -13h-165l-14 13v1083q-10 0 -21.5 -2t-16.5 -4h-21v167q11 8 26.5 15.5t38.5 7.5q46 0 84 -21.5t64 -63.5q35 42 84.5 63.5t97.5 21.5q65 0 126.5 -25t109 -68t76 -100.5t28.5 -123.5v-248q0 -66 -28.5 -123t-76 -100t-109 -67.5t-126.5 -24.5 q-34 0 -72.5 14.5t-70.5 40.5v-442zM446 691q-27 0 -52.5 -10t-45.5 -27t-32.5 -40t-12.5 -50v-254q1 -25 14 -47t33 -38.5t45 -26t51 -9.5q27 0 54 9.5t48.5 26.5t35 40t13.5 50v248q0 27 -13.5 50t-35 40.5t-48.5 27.5t-54 10z" />
<glyph unicode="q" horiz-adv-x="865" d="M562 55q-32 -26 -70.5 -40.5t-72.5 -14.5q-65 0 -126.5 24.5t-109 67.5t-76 100t-28.5 123v248q0 66 28.5 123.5t76 100.5t109 68t126.5 25q48 0 97.5 -21.5t84.5 -63.5q26 42 64 63.5t84 21.5q18 0 31.5 -4t24.5 -10v-167h-21q-16 0 -29 -3v-1083l-14 -13h-165l-14 13 v442zM419 691q-27 0 -54 -10t-48.5 -27.5t-35 -40.5t-13.5 -50v-248q0 -27 13.5 -50t35 -40t48.5 -26.5t54 -9.5q25 0 50.5 9.5t45.5 26t33 38.5t14 47v254q0 27 -12.5 50t-32.5 40t-45.5 27t-52.5 10z" />
<glyph unicode="r" horiz-adv-x="598" d="M553 660l-14 -2q-19 15 -42 24t-56 9q-27 0 -51.5 -10t-44 -27t-31 -40t-11.5 -50v-543l-22 -21h-149l-22 21v673q-11 6 -23 5.5t-21 -2.5h-17v167q10 6 25 11t32 5q46 0 84 -21t64 -59q18 21 41 36t47.5 24.5t50 14.5t48.5 5q30 0 58 -5t54 -13v-202z" />
<glyph unicode="s" horiz-adv-x="756" d="M688 272q0 -56 -21.5 -105.5t-58.5 -86.5t-86.5 -58.5t-105.5 -21.5q-41 1 -79 3.5t-76.5 6.5t-79 9.5t-85.5 13.5v185l12 5q78 -14 158.5 -24t149.5 -10q35 0 59.5 24t24.5 59q0 17 -6.5 32t-18 26.5t-26.5 18t-33 6.5h-97q-54 0 -101.5 20.5t-83.5 56.5t-56.5 83.5 t-20.5 101.5t20.5 102t56.5 84t83.5 56.5t101.5 20.5q40 -1 78.5 -3.5t77 -6.5t79 -10t85.5 -13v-180l-12 -8q-78 14 -158 23t-150 9q-31 1 -52.5 -20.5t-21.5 -53.5q0 -31 21.5 -52.5t52.5 -21.5h97q56 0 105.5 -21.5t86.5 -58t58.5 -86t21.5 -105.5z" />
<glyph unicode="t" horiz-adv-x="613" d="M403 184q27 0 50 2.5t34 6.5h20v-167q-25 -11 -63 -18.5t-81 -7.5q-33 0 -61 11.5t-48.5 33t-32 52.5t-11.5 71v498h-144l-21 22v145l21 22h144v324l22 21h149l22 -21v-324h144l21 -22v-145l-21 -22h-144v-482z" />
<glyph unicode="u" horiz-adv-x="863" d="M94 859l22 21h149l22 -21v-543q0 -27 11 -50t29.5 -40t43 -27t51.5 -10t51.5 10t44 27t31 40t11.5 50v543l22 21h149l22 -21v-673q11 -6 23 -5.5t21 2.5h17v-167q-10 -6 -25 -11t-32 -5q-46 0 -84 21t-64 59q-18 -21 -41 -36t-47.5 -24.5t-50 -14.5t-48.5 -5 q-71 0 -131.5 25t-104 67.5t-68 100t-24.5 123.5v543z" />
<glyph unicode="v" horiz-adv-x="854" d="M427 0q-34 0 -67 12.5t-60.5 34.5t-48 51.5t-29.5 62.5l-189 710l11 9h169l13 -7l201 -684l201 684l13 7h169l11 -9l-189 -710q-9 -33 -29.5 -62.5t-48 -51.5t-60.5 -34.5t-67 -12.5z" />
<glyph unicode="w" horiz-adv-x="1275" d="M853 189q21 0 42.5 7t38.5 20.5t27.5 31.5t10.5 41v570l22 21h149l22 -21v-570q0 -69 -26.5 -122.5t-70 -90.5t-99.5 -56.5t-116 -19.5t-116 24t-100 66q-44 -42 -99.5 -66t-115.5 -24t-116.5 19.5t-100 56.5t-69.5 90.5t-26 122.5v570l22 21h149l22 -21v-570 q0 -23 10.5 -41t27.5 -31.5t38.5 -20.5t42.5 -7t42.5 7t38.5 20.5t27.5 31.5t10.5 41v570l22 21h149l22 -21v-570q0 -23 10.5 -41t27.5 -31.5t38.5 -20.5t42.5 -7z" />
<glyph unicode="x" horiz-adv-x="850" d="M759 21l-22 -21h-149l-22 21v217q0 26 -12 50t-31.5 42t-44.5 29t-52 11q-30 -2 -56 -13t-45.5 -29.5t-30.5 -42t-11 -48.5q0 -6 1.5 -33t4.5 -60.5t6 -67.5t6 -54l-10 -10l-179 -13q-5 29 -9 63t-7 66t-4.5 58.5t-1.5 40.5q0 31 10.5 61.5t28 59t40.5 54.5t48 47 q-26 21 -49 46t-40 53.5t-27.5 59t-10.5 62.5v189l22 21h149l22 -21v-199q0 -26 11.5 -50t31 -42t45 -28.5t52.5 -10.5q30 1 56 12.5t45.5 29.5t30.5 41.5t11 48.5q0 7 -1.5 31t-3.5 54t-5 61t-6 51l9 11l181 12q5 -30 8.5 -61t6 -59.5t3.5 -52t1 -37.5q0 -31 -10.5 -61.5 t-28 -59t-40.5 -54t-48 -46.5q25 -21 48.5 -46.5t40.5 -54t27.5 -59t10.5 -62.5v-207z" />
<glyph unicode="y" horiz-adv-x="871" d="M568 859l22 21h149l22 -21v-943q0 -65 -26.5 -122.5t-71.5 -100.5t-104.5 -68t-125.5 -25q-52 0 -104 20t-97 55t-79.5 84t-52.5 107l150 54l16 -3q10 -25 29 -48t42.5 -41t48 -28.5t47.5 -10.5q27 0 51.5 10t43 27t29.5 40t11 50v139q-31 -30 -66 -42.5t-69 -12.5 q-65 0 -125.5 24.5t-107 67.5t-74 100t-27.5 123v338q0 17 1.5 44t4.5 58t7 64t9 62l178 -12l11 -12q-4 -32 -7 -63.5t-5.5 -59.5t-4 -51.5t-1.5 -39.5v-328q0 -27 12 -50t31.5 -40t45 -26.5t52.5 -9.5q26 0 50 9.5t42.5 26t30 38.5t12.5 47v549z" />
<glyph unicode="z" horiz-adv-x="757" d="M692 691q0 -44 -26 -86.5t-65.5 -82.5t-86 -75.5t-86.5 -65.5q-84 -62 -131.5 -97t-47.5 -57q0 -16 11.5 -27t27.5 -11q25 0 70 0.5t99.5 2t113 4.5t109.5 7l12 -8v-183q-50 -3 -106.5 -5.5t-111.5 -4t-104 -2t-82 -0.5q-47 0 -88.5 18t-72 48t-48.5 69t-18 81 q0 41 29 84t72 83.5t91 77t86 64.5q26 19 55 41.5t53.5 43.5t40.5 37t16 23q0 11 -11 16t-28 5q-24 0 -61.5 -0.5t-84 -2.5t-99 -5t-107.5 -8l-8 8v185q50 3 100 5.5t97 4t88.5 2t74.5 0.5q47 0 88.5 -14.5t72 -40t48.5 -60t18 -74.5z" />
<glyph unicode="{" horiz-adv-x="525" d="M255 554q30 -23 50 -61t20 -77v-288q0 -23 16 -40.5t39 -17.5q6 0 17 1.5t22.5 3t21.5 3.5t16 3h22v-153q-26 -8 -52 -14t-47 -6q-45 0 -85 17.5t-70 47.5t-47.5 70t-17.5 85v288q0 23 -22 39t-62 16l-17 17v66v66l17 17q40 0 62 16t22 39v288q0 45 17.5 85t47.5 70 t70 47.5t85 17.5q21 0 47 -6t52 -14v-153h-22q-6 1 -16 3t-21.5 3.5t-22.5 3t-17 1.5q-23 0 -39 -17.5t-16 -40.5v-288q0 -39 -20 -77t-50 -61z" />
<glyph unicode="|" horiz-adv-x="405" d="M295 -82l-18 -18h-149l-18 18v1264l18 18h149l18 -18v-1264z" />
<glyph unicode="}" horiz-adv-x="535" d="M270 554q-30 23 -50 61t-20 77v288q0 23 -16 40.5t-39 17.5q-6 0 -17 -1.5t-22.5 -3t-21.5 -3.5t-16 -3h-22v153q26 8 52 14t47 6q45 0 85 -17.5t70 -47.5t47.5 -70t17.5 -85v-288q0 -23 22 -39t62 -16l17 -17v-66v-66l-17 -17q-40 0 -62 -16t-22 -39v-288 q0 -45 -17.5 -85t-47.5 -70t-70 -47.5t-85 -17.5q-21 0 -47 6t-52 14v153h22q6 -1 16 -3t21.5 -3.5t22.5 -3t17 -1.5q23 0 39 17.5t16 40.5v288q0 39 20 77t50 61z" />
<glyph unicode="~" horiz-adv-x="945" d="M524 712q27 -25 52 -45t47 -20q16 0 32.5 8.5t29 23.5t20.5 34.5t8 41.5l17 16h131l17 -16q0 -62 -21 -112.5t-56.5 -86t-81.5 -55t-96 -19.5q-30 0 -57.5 10t-52.5 25.5t-48 35t-43 37.5q-27 25 -52 45t-47 20q-17 0 -33 -8.5t-28.5 -23.5t-20.5 -34.5t-8 -41.5l-17 -16 h-131l-17 16q0 62 21 112.5t56 86t81.5 55t96.5 19.5q30 0 57.5 -10t52.5 -25.5t48 -35t43 -37.5z" />
<glyph unicode="&#xde;" horiz-adv-x="1255" d="M270 177q0 -5 5 -11.5t11 -6.5q17 0 36 4t38 9h18v-152q-26 -8 -51.5 -14t-47.5 -6q-36 0 -67.5 13.5t-55.5 37.5t-37.5 55.5t-13.5 67.5v321q0 43 -7.5 82t-22.5 77q40 104 127 165t215 61q64 0 121 -24.5t99.5 -66.5t67 -99t24.5 -122v-250q0 -31 9 -58.5t25.5 -47.5 t41 -32t54.5 -12q29 0 51.5 11t38.5 30.5t25 45.5t11 56v552l17 17h131l17 -17v-779q0 -66 -20.5 -126.5t-58 -106.5t-91 -73.5t-120.5 -27.5q-28 0 -64.5 7.5t-66.5 19.5v157l17 5q11 -5 26.5 -8.5t32 -6t31 -4t24.5 -1.5q24 0 46.5 7.5t40 25t28 45t10.5 68.5 q-26 -29 -58.5 -47t-67.5 -18q-67 0 -121.5 25t-93 68t-59.5 101t-21 124v250q0 31 -11.5 57.5t-31.5 46.5t-46.5 31.5t-57.5 11.5q-60 0 -97.5 -14.5t-63.5 -50.5q11 -38 12.5 -79.5t1.5 -75.5v-318z" />
<glyph unicode="&#xe0d;" horiz-adv-x="1255" d="M270 177q0 -5 5 -11.5t11 -6.5q17 0 36 4t38 9h18v-152q-26 -8 -51.5 -14t-47.5 -6q-36 0 -67.5 13.5t-55.5 37.5t-37.5 55.5t-13.5 67.5v321q0 43 -7.5 82t-22.5 77q40 104 127 165t215 61q64 0 121 -24.5t99.5 -66.5t67 -99t24.5 -122v-250q0 -31 9 -58.5t25.5 -47.5 t41 -32t54.5 -12q29 0 51.5 11t38.5 30.5t25 45.5t11 56v552l17 17h131l17 -17v-779q0 -66 -20.5 -126.5t-58 -106.5t-91 -73.5t-120.5 -27.5q-28 0 -64.5 7.5t-66.5 19.5v157l17 5q11 -5 26.5 -8.5t32 -6t31 -4t24.5 -1.5q24 0 46.5 7.5t40 25t28 45t10.5 68.5 q-26 -29 -58.5 -47t-67.5 -18q-67 0 -121.5 25t-93 68t-59.5 101t-21 124v250q0 31 -11.5 57.5t-31.5 46.5t-46.5 31.5t-57.5 11.5q-60 0 -97.5 -14.5t-63.5 -50.5q11 -38 12.5 -79.5t1.5 -75.5v-318z" />
<glyph unicode="&#xff;" horiz-adv-x="1310" d="M80 575q0 119 45.5 223.5t123.5 182.5t182.5 123.5t223.5 45.5t223.5 -45.5t182.5 -123.5t123.5 -182.5t45.5 -223.5t-45.5 -223.5t-123.5 -182.5t-182.5 -123.5t-223.5 -45.5t-223.5 45.5t-182.5 123.5t-123.5 182.5t-45.5 223.5zM255 800q0 -42 29 -71t71 -29t71 29 t29 71t-29 71t-71 29t-71 -29t-29 -71zM855 800q0 -42 29 -71t71 -29t71 29t29 71t-29 71t-71 29t-71 -29t-29 -71zM1133 678q-29 -78 -79.5 -147t-114 -120t-136.5 -81t-148 -30t-148 30t-136.5 81t-114 120t-79.5 147q0 -99 37.5 -186t102.5 -152t152 -102.5t186 -37.5 t186 37.5t152 102.5t102.5 152t37.5 186z" />
<glyph unicode="&#x152;" d="M-331 950q-23 0 -43.5 7.5t-36.5 22.5t-26 36.5t-11 49.5q-20 0 -36.5 -6t-27.5 -13h-16v134q23 10 50.5 14.5t52.5 4.5q49 0 77.5 -28t29.5 -81q55 -1 106 1t84 5h18l17 -17v-113l-17 -17h-221z" />
<glyph unicode="&#xf70b;" d="M-331 950q-23 0 -43.5 7.5t-36.5 22.5t-26 36.5t-11 49.5q-20 0 -36.5 -6t-27.5 -13h-16v134q23 10 50.5 14.5t52.5 4.5q49 0 77.5 -28t29.5 -81q55 -1 106 1t84 5h18l17 -17v-113l-17 -17h-221z" />
<glyph unicode="&#x153;" d="M-476 1250q-23 0 -43.5 7.5t-36.5 22.5t-26 36.5t-11 49.5q-20 0 -36.5 -6t-27.5 -13h-16v134q23 10 50.5 14.5t52.5 4.5q49 0 77.5 -28t29.5 -81q55 -1 106 1t84 5h18l17 -17v-113l-17 -17h-221z" />
<glyph unicode="&#xf714;" d="M-476 1250q-23 0 -43.5 7.5t-36.5 22.5t-26 36.5t-11 49.5q-20 0 -36.5 -6t-27.5 -13h-16v134q23 10 50.5 14.5t52.5 4.5q49 0 77.5 -28t29.5 -81q55 -1 106 1t84 5h18l17 -17v-113l-17 -17h-221z" />
<glyph unicode="&#x160;" d="M-367 1017h-257q-2 -11 -0.5 -20.5t9.5 -18.5l-4 -11l-126 -26q-5 13 -10 33.5t-5 30.5q0 30 11.5 56.5t31 46t46 31t56.5 11.5h248l17 -17v-99z" />
<glyph unicode="&#xf709;" d="M-367 1017h-257q-2 -11 -0.5 -20.5t9.5 -18.5l-4 -11l-126 -26q-5 13 -10 33.5t-5 30.5q0 30 11.5 56.5t31 46t46 31t56.5 11.5h248l17 -17v-99z" />
<glyph unicode="&#x161;" d="M-469 1074l15 5l59 -34l8 -17q-17 -40 -46.5 -69t-79.5 -29q-19 0 -43 10t-36 24q-14 -14 -32.5 -24t-35.5 -10q-29 0 -55 11.5t-45.5 31t-30.5 45.5t-11 55t11 52.5t30.5 40t45.5 25.5t55 9h322l17 -17v-66l-17 -17h-341q-10 0 -16 -8.5t-6 -18.5q0 -19 12 -30.5 t29 -11.5t29.5 11.5t12.5 31.5l4 4h53l4 -4q0 -20 12 -32.5t32 -12.5t32 12.5t12 32.5z" />
<glyph unicode="&#xf712;" d="M-469 1074l15 5l59 -34l8 -17q-17 -40 -46.5 -69t-79.5 -29q-19 0 -43 10t-36 24q-14 -14 -32.5 -24t-35.5 -10q-29 0 -55 11.5t-45.5 31t-30.5 45.5t-11 55t11 52.5t30.5 40t45.5 25.5t55 9h322l17 -17v-66l-17 -17h-341q-10 0 -16 -8.5t-6 -18.5q0 -19 12 -30.5 t29 -11.5t29.5 11.5t12.5 31.5l4 4h53l4 -4q0 -20 12 -32.5t32 -12.5t32 12.5t12 32.5z" />
<glyph unicode="&#x178;" d="M-206 1325h-257q-2 -11 -0.5 -20.5t9.5 -18.5l-4 -11l-126 -26q-5 13 -10 33.5t-5 30.5q0 30 11.5 56.5t31 46t46 31t56.5 11.5h248l17 -17v-99z" />
<glyph unicode="&#xf717;" d="M-206 1325h-257q-2 -11 -0.5 -20.5t9.5 -18.5l-4 -11l-126 -26q-5 13 -10 33.5t-5 30.5q0 30 11.5 56.5t31 46t46 31t56.5 11.5h248l17 -17v-99z" />
<glyph unicode="&#x17d;" d="M-309 1125v58l17 17h90l17 -17v-58h58l17 -17v-90l-17 -17h-58v-58l-17 -17h-90l-17 17v58h-58l-17 17v90l17 17h58z" />
<glyph unicode="&#xf70d;" d="M-309 1125v58l17 17h90l17 -17v-58h58l17 -17v-90l-17 -17h-58v-58l-17 -17h-90l-17 17v58h-58l-17 17v90l17 17h58z" />
<glyph unicode="&#x17e;" d="M-460 1449v58l17 17h90l17 -17v-58h58l17 -17v-90l-17 -17h-58v-58l-17 -17h-90l-17 17v58h-58l-17 17v90l17 17h58z" />
<glyph unicode="&#xf716;" d="M-460 1449v58l17 17h90l17 -17v-58h58l17 -17v-90l-17 -17h-58v-58l-17 -17h-90l-17 17v58h-58l-17 17v90l17 17h58z" />
<glyph unicode="&#x192;" d="M-592 993q-23 0 -51 -3t-56 -9t-53.5 -13.5t-43.5 -16.5l-17 1l-60 89l1 17q62 45 132.5 63.5t146.5 18.5q12 0 23.5 -3.5t19.5 -6.5q13 27 43 44.5t62 17.5q24 0 45 -9t37 -25t25 -37t9 -45t-9 -45t-25 -37t-37 -25t-45 -9q-16 0 -33.5 5t-36.5 11.5t-38.5 11.5t-38.5 5 zM-494 1076q0 -20 14.5 -34.5t34.5 -14.5q21 0 35.5 14.5t14.5 34.5q0 21 -14.5 35.5t-35.5 14.5q-20 0 -34.5 -14.5t-14.5 -35.5z" />
<glyph unicode="&#xf703;" d="M-592 993q-23 0 -51 -3t-56 -9t-53.5 -13.5t-43.5 -16.5l-17 1l-60 89l1 17q62 45 132.5 63.5t146.5 18.5q12 0 23.5 -3.5t19.5 -6.5q13 27 43 44.5t62 17.5q24 0 45 -9t37 -25t25 -37t9 -45t-9 -45t-25 -37t-37 -25t-45 -9q-16 0 -33.5 5t-36.5 11.5t-38.5 11.5t-38.5 5 zM-494 1076q0 -20 14.5 -34.5t34.5 -14.5q21 0 35.5 14.5t14.5 34.5q0 21 -14.5 35.5t-35.5 14.5q-20 0 -34.5 -14.5t-14.5 -35.5z" />
<glyph unicode="&#x2c6;" d="M-367 927h-90l-17 17v31q0 12 -9 19.5t-22 7.5q-12 0 -20.5 -7.5t-8.5 -24.5l-6 -8h-77l-7 8q0 17 -10 28.5t-21 11.5q-14 0 -19 -6.5t-5 -15.5q0 -8 3 -15t8 -15v-16l-91 -26l-13 2q-15 17 -21.5 30.5t-6.5 39.5q0 30 11.5 56.5t31 46t46 31t56.5 11.5q21 0 43 -11 t37 -27q14 17 31.5 27.5t38.5 10.5q9 0 18 -3t13 -5v58l17 17h90l17 -17v-239z" />
<glyph unicode="&#xf707;" d="M-367 927h-90l-17 17v31q0 12 -9 19.5t-22 7.5q-12 0 -20.5 -7.5t-8.5 -24.5l-6 -8h-77l-7 8q0 17 -10 28.5t-21 11.5q-14 0 -19 -6.5t-5 -15.5q0 -8 3 -15t8 -15v-16l-91 -26l-13 2q-15 17 -21.5 30.5t-6.5 39.5q0 30 11.5 56.5t31 46t46 31t56.5 11.5q21 0 43 -11 t37 -27q14 17 31.5 27.5t38.5 10.5q9 0 18 -3t13 -5v58l17 17h90l17 -17v-239z" />
<glyph unicode="&#x2dc;" d="M-367 950h-302q-36 0 -67 9t-54 29.5t-36.5 53t-13.5 79.5q0 22 5 38.5t14 40.5h141v-15q-11 -39 -11 -61q0 -12 7 -24t15 -12h302l17 -17v-104z" />
<glyph unicode="&#xf710;" d="M-367 950h-302q-36 0 -67 9t-54 29.5t-36.5 53t-13.5 79.5q0 22 5 38.5t14 40.5h141v-15q-11 -39 -11 -61q0 -12 7 -24t15 -12h302l17 -17v-104z" />
<glyph unicode="&#xe01;" horiz-adv-x="833" d="M711 0h-131l-17 17v551q0 31 -11.5 57.5t-31 46.5t-46.5 31.5t-57 11.5q-60 0 -98 -14.5t-64 -50.5q11 -38 13 -79.5t2 -75.5v-478l-17 -17h-131l-17 17v478q0 43 -7.5 82t-22.5 77q40 104 127 165t215 61q64 0 121 -24.5t99 -66.5t66.5 -99t24.5 -122v-551z" />
<glyph unicode="&#xe02;" horiz-adv-x="804" d="M699 863v-551q0 -65 -24.5 -122t-67 -99t-99.5 -66.5t-121 -24.5q-65 0 -121.5 24.5t-99 66.5t-67 99t-24.5 122q0 49 9.5 86t25 65t35 50t39.5 43q14 15 27.5 30t24 32t17 36.5t6.5 43.5q0 8 -4.5 12.5t-9.5 4.5q-33 0 -54 -10.5t-42 -27.5h-28v145q30 27 62 42.5 t67 15.5q36 0 67.5 -13.5t55.5 -37.5t37.5 -55.5t13.5 -67.5q0 -48 -9.5 -84.5t-25 -66t-35 -53.5t-39.5 -46q-15 -16 -28.5 -31.5t-24 -33t-16.5 -37t-6 -42.5q0 -31 11.5 -57.5t31.5 -46.5t47 -31.5t57 -11.5q31 0 57.5 11.5t46.5 31.5t31.5 46.5t11.5 57.5v551l17 17h131 z" />
<glyph unicode="&#xe03;" horiz-adv-x="801" />
<glyph unicode="&#xe04;" horiz-adv-x="861" d="M431 321q-33 0 -62.5 -12.5t-51.5 -34.5t-34.5 -51.5t-12.5 -62.5v-143l-17 -17h-131l-17 17v538q0 67 25.5 126t70 103.5t103.5 70t127 25.5q67 0 126 -25.5t103.5 -70t70 -103.5t25.5 -126v-538l-17 -17h-131l-17 17v538q0 33 -12.5 62t-34 51t-51 34.5t-62.5 12.5 t-62.5 -12.5t-51.5 -34.5t-34.5 -51t-12.5 -62v-145q73 76 161 76q18 0 38 -5.5t34 -14.5v-149l-16 -4q-10 4 -27.5 6t-28.5 2z" />
<glyph unicode="&#xe05;" horiz-adv-x="991" />
<glyph unicode="&#xe06;" horiz-adv-x="838" d="M315 659h-111l-10 10v29q0 8 -8 18.5t-19 10.5q-20 0 -37.5 -8.5t-36.5 -20.5h-29v139q23 20 49.5 31.5t53.5 11.5q31 0 52.5 -10.5t41.5 -29.5q9 9 23.5 16.5t30.5 13t32 8t28 2.5q36 0 64 -13.5t47 -37.5t29 -55.5t10 -67.5q0 -49 -13 -86.5t-34.5 -67.5t-49 -54 t-57.5 -46q-43 -32 -69.5 -64t-26.5 -76q0 -31 11.5 -57.5t31 -46.5t46.5 -31.5t57 -11.5q31 0 57.5 11.5t46.5 31.5t31.5 46.5t11.5 57.5v551l17 17h131l17 -17v-551q0 -65 -22.5 -122t-63.5 -99t-98.5 -66.5t-127.5 -24.5q-50 0 -92.5 24t-76.5 66q-23 -42 -62.5 -66 t-89.5 -24q-11 0 -25.5 4.5t-26.5 11.5v150h16q7 -2 15 -3t16 -1q6 0 10.5 2.5t4.5 9.5v138q0 39 15 75t38.5 67t52.5 57t57 45q21 14 41 28t36 30.5t25.5 36.5t9.5 47q0 11 -8.5 20t-21.5 9q-14 0 -22 -9.5t-8 -19.5v-29z" />
<glyph unicode="&#xe07;" horiz-adv-x="655" d="M253 165q30 0 57 11.5t47 31.5t31.5 46.5t11.5 57.5v302q0 21 -8 39.5t-21.5 32t-32 21.5t-39.5 8q-20 0 -42.5 -2.5t-33.5 -4.5h-23v152q26 8 51.5 14t47.5 6q55 0 103.5 -21t84.5 -57t57 -84.5t21 -103.5v-302q0 -65 -24.5 -122t-67 -99t-99.5 -66.5t-121 -24.5 q-25 0 -48 3t-47 10.5t-52 21.5t-64 36v174l15 4q27 -19 54.5 -34.5t53.5 -26.5t48.5 -17t39.5 -6z" />
<glyph unicode="&#xe08;" horiz-adv-x="764" d="M214 302q-10 0 -26.5 -1.5t-27.5 -3.5h-15v148q14 8 33 15t41 7q41 0 73.5 -13.5t55 -37t34.5 -55.5t12 -68v-73q0 -23 16 -39t39 -16t39 16t16 39v348q0 31 -11.5 57.5t-31.5 46.5t-47 31.5t-57 11.5q-27 0 -52 -11t-44.5 -31t-33 -47.5t-18.5 -60.5l-18 -1l-145 51 q14 59 43.5 107.5t70.5 83.5t91 54.5t106 19.5q64 0 121 -24.5t99.5 -66.5t67 -99t24.5 -122v-348q0 -45 -17.5 -85t-47.5 -70t-70 -47.5t-85 -17.5t-85 17.5t-70 47.5t-47.5 70t-17.5 85v73q0 5 -4.5 7t-10.5 2z" />
<glyph unicode="&#xe09;" horiz-adv-x="797" d="M375 715q-27 0 -52 -11t-44.5 -31t-33 -47.5t-18.5 -60.5l-18 -1l-145 51q14 59 43.5 107.5t70.5 83.5t91 54.5t106 19.5q65 0 122 -24.5t99 -66.5t66.5 -99t24.5 -122v-394q0 -4 3 -9t7 -5q9 0 18 2t17 4h16v-150q-9 -6 -21 -11t-31 -5q-45 0 -83 18.5t-62 56.5 q-29 -38 -66.5 -56.5t-72.5 -18.5q-56 0 -103 21t-81 57t-53.5 84.5t-19.5 103.5v27q0 3 -3 6t-8 3q-6 0 -18.5 -2t-23.5 -4h-17v149q14 8 33 15t41 7q42 0 72.5 -13.5t50 -37t29 -55.5t9.5 -68v-27q0 -42 25.5 -71.5t66.5 -29.5q21 0 41 8t35.5 21.5t24.5 32t9 39.5v302 q0 31 -11.5 57.5t-31.5 46.5t-46.5 31.5t-57.5 11.5z" />
<glyph unicode="&#xe0a;" horiz-adv-x="814" d="M310 459q-30 -32 -47.5 -66t-17.5 -81q0 -31 14.5 -57.5t37.5 -46.5t53 -31.5t60 -11.5q31 0 58 11.5t47 31.5t32 46.5t12 57.5q0 24 -7 49t-19.5 47t-29.5 39t-37 25v122l19 23q40 22 57 59t17 94q0 6 -1.5 16t-4 22t-5.5 24t-6 21l34 34l124 11q5 -13 9.5 -29.5 t7.5 -33.5t5 -34t2 -31q0 -69 -23.5 -127.5t-70.5 -101.5q46 -43 70 -102t24 -127q0 -65 -25 -122t-67.5 -99t-100 -66.5t-121.5 -24.5q-65 0 -124.5 24.5t-105 66.5t-73 99t-27.5 122q0 49 9.5 86t25 65t35 50t39.5 43q14 15 27.5 30t24 32t17 36.5t6.5 43.5q0 8 -4.5 12.5 t-9.5 4.5q-33 0 -54 -10.5t-42 -27.5h-28v145q30 27 62 42.5t67 15.5q36 0 67.5 -13.5t55.5 -37.5t37.5 -55.5t13.5 -67.5q0 -48 -11 -84t-28 -65t-38 -52.5t-42 -45.5z" />
<glyph unicode="&#xe0b;" horiz-adv-x="844" d="M340 459q-65 -56 -65 -147q0 -31 13 -57.5t34.5 -46.5t49.5 -31.5t58 -11.5q31 0 59.5 11.5t50.5 31.5t35.5 46.5t13.5 57.5q0 24 -7 49t-19.5 47t-29.5 39t-37 25v122l19 23q40 22 57 59t17 94q0 6 -1.5 16t-4 22t-5.5 24t-6 21l34 34l124 11q5 -13 9.5 -29.5t7.5 -33.5 t5 -34t2 -31q0 -69 -23.5 -127.5t-70.5 -101.5q46 -43 70 -102t24 -127q0 -65 -26.5 -122t-71 -99t-103.5 -66.5t-123 -24.5q-65 0 -123 24.5t-101.5 66.5t-69.5 99t-26 122q0 49 9 86.5t24 66.5t34.5 51t41.5 40q19 16 39 30.5t36.5 30t26.5 35t10 46.5q0 11 -8.5 20 t-21.5 9q-14 0 -22 -9.5t-8 -19.5v-29l-10 -10h-111l-10 10v29q0 8 -8 18.5t-19 10.5q-17 0 -33.5 -4.5t-26.5 -9.5h-23v139q17 11 36.5 19.5t46.5 8.5q31 0 52.5 -10.5t41.5 -29.5q9 9 23.5 16.5t30.5 13t32 8t28 2.5q36 0 64 -13.5t47 -37.5t29 -55.5t10 -67.5 q0 -49 -10 -84.5t-27.5 -63.5t-41.5 -51.5t-52 -47.5z" />
<glyph unicode="&#xe0c;" horiz-adv-x="1246" d="M270 177q0 -5 5 -11.5t11 -6.5q17 0 36 4t38 9h18v-152q-26 -8 -51.5 -14t-47.5 -6q-36 0 -67.5 13.5t-55.5 37.5t-37.5 55.5t-13.5 67.5v321q0 43 -7.5 82t-22.5 77q40 104 127 165t215 61q64 0 121 -24.5t99.5 -66.5t67 -99t24.5 -122v-256q0 -31 11 -57.5t29 -46.5 t41 -31.5t47 -11.5q29 0 51.5 11.5t37.5 31.5t22.5 46.5t7.5 57.5v551l17 17h131l17 -17v-551q0 -65 -17.5 -122t-53 -99t-89 -66.5t-124.5 -24.5q-51 0 -87 24t-65 66q-23 -45 -62.5 -67.5t-88.5 -22.5q-14 0 -24.5 4.5t-18.5 11.5v150h14q6 -2 14.5 -3t14.5 -1q5 0 7.5 4 t2.5 8v394q0 31 -11.5 57.5t-31.5 46.5t-46.5 31.5t-57.5 11.5q-60 0 -97.5 -14.5t-63.5 -50.5q11 -38 12.5 -79.5t1.5 -75.5v-318z" />
<glyph unicode="&#xe0e;" horiz-adv-x="838" d="M110 495q0 84 -31 159q41 104 128 165t214 61q65 0 122 -24.5t99 -66.5t66.5 -99t24.5 -122v-671q0 -41 -15.5 -77t-42 -62.5t-62.5 -42t-77 -15.5q-30 0 -63 15t-56 45q-23 -30 -51.5 -45t-58.5 -15q-42 0 -84.5 22.5t-81.5 61.5l101 103l14 1q10 -9 24 -16t27 -7 q14 0 23 9t9 23v34l13 13h126l13 -13v-34q0 -14 13.5 -23t25.5 -9q14 0 26 8t12 24v671q0 31 -11.5 57.5t-31.5 46.5t-46.5 31.5t-57.5 11.5q-60 0 -97.5 -14.5t-63.5 -50.5q11 -38 13 -79.5t2 -75.5v-321q0 -36 -11.5 -67.5t-32.5 -55.5t-51 -37.5t-66 -13.5q-37 0 -66 16 v150h14q8 -2 18.5 -3.5t18.5 -1.5q5 0 8 4.5t3 8.5v321z" />
<glyph unicode="&#xe0f;" horiz-adv-x="838" d="M110 495q0 84 -31 159q41 104 128 165t214 61q65 0 122 -24.5t99 -66.5t66.5 -99t24.5 -122v-689q0 -39 -13 -72t-37 -56.5t-58.5 -37t-77.5 -13.5q-25 0 -50 16.5t-41 33.5q-7 -9 -18 -17.5t-24 -16t-27 -12t-26 -4.5q-25 0 -51 16t-40 34q-15 -18 -37 -34t-45 -16 q-36 0 -69.5 19t-70.5 53l98 102l15 2q5 -3 11.5 -7t14.5 -4q14 0 14 14v24l13 13h109l13 -13v-24q0 -8 5.5 -16t18.5 -8t18.5 7.5t5.5 16.5v24l13 13h109l13 -13v-24q0 -8 7.5 -16t17.5 -8q9 0 16.5 7t7.5 17v689q0 31 -11.5 57.5t-31.5 46.5t-46.5 31.5t-57.5 11.5 q-60 0 -97.5 -14.5t-63.5 -50.5q11 -38 13 -79.5t2 -75.5v-321q0 -36 -11.5 -67.5t-32.5 -55.5t-51 -37.5t-66 -13.5q-37 0 -66 16v150h14q8 -2 18.5 -3.5t18.5 -1.5q5 0 8 4.5t3 8.5v321z" />
<glyph unicode="&#xe10;" horiz-adv-x="769" d="M494 568q0 31 -11.5 57.5t-31.5 46.5t-46.5 31.5t-57.5 11.5q-21 0 -42.5 -8t-41 -22.5t-36 -34t-26.5 -41.5l-14 -3l-139 59q22 48 54 87.5t71 68t83 44t91 15.5q51 0 97 -1t89.5 2t86 11.5t87.5 27.5l29 -143q-12 -9 -32 -15.5t-42 -10t-44 -5.5t-38 -2 q18 -15 32.5 -35.5t25 -44t16 -48t5.5 -48.5v-348q0 -45 -17.5 -85t-47.5 -70t-70 -47.5t-85 -17.5t-85 17.5t-70 47.5t-47.5 70t-17.5 85v73q0 5 -4.5 7t-10.5 2q-10 0 -26.5 -1.5t-27.5 -3.5h-15v148q14 8 33 15t41 7q41 0 73.5 -13.5t55 -37t34.5 -55.5t12 -68v-73 q0 -23 16 -39t39 -16t39 16t16 39v348zM681 21l8 1q44 -50 44 -123q0 -39 -13 -72t-37 -56.5t-58.5 -37t-77.5 -13.5q-25 0 -50 16.5t-41 33.5q-7 -9 -18 -17.5t-24 -16t-27 -12t-26 -4.5q-25 0 -51 16t-40 34q-15 -18 -37 -34t-45 -16q-36 0 -69.5 19t-70.5 53l98 102l15 2 q5 -3 11.5 -7t14.5 -4q14 0 14 14v24l13 13h109l13 -13v-24q0 -8 5.5 -16t18.5 -8t18.5 7.5t5.5 16.5v24l13 13h109l13 -13v-24q0 -8 7.5 -16t17.5 -8q9 0 16.5 7t7.5 17t-3 18v10z" />
<glyph unicode="&#xe11;" horiz-adv-x="885" d="M763 0h-131l-17 17v643q0 23 -16 39t-39 16q-24 0 -39.5 -14.5t-15.5 -40.5q0 -33 -13 -61.5t-33.5 -54t-45 -48t-46.5 -42.5q-17 -16 -33.5 -32t-29.5 -33t-21 -36t-8 -41v-295l-17 -17h-131l-17 17v295q0 50 12 87.5t31.5 66t43.5 50.5t49 43q18 15 35 29t29.5 29.5 t20.5 35t8 45.5q0 11 -8.5 20t-21.5 9q-14 0 -22 -9.5t-8 -19.5v-29l-10 -10h-111l-10 10v29q0 8 -8 18.5t-19 10.5q-17 0 -33.5 -4.5t-26.5 -9.5h-23v139q17 11 36.5 19.5t46.5 8.5q31 0 52.5 -11.5t41.5 -28.5q20 16 50.5 28t63.5 12q28 0 53 -13.5t47 -36.5 q26 23 59 36.5t72 13.5q45 0 85 -17.5t70 -47.5t47.5 -70t17.5 -85v-643z" />
<glyph unicode="&#xe12;" horiz-adv-x="1269" d="M752 312q0 -31 11 -57.5t29 -46.5t41 -31.5t47 -11.5q29 0 51.5 11.5t37.5 31.5t22.5 46.5t7.5 57.5v551l17 17h131l17 -17v-551q0 -65 -17.5 -122t-53 -99t-89 -66.5t-124.5 -24.5q-51 0 -87 24t-65 66q-23 -45 -62.5 -67.5t-88.5 -22.5q-14 0 -24.5 4.5t-18.5 11.5v150 h14q6 -2 14.5 -3t14.5 -1q5 0 7.5 4t2.5 8v509q0 14 -12.5 23t-25.5 9q-14 0 -26 -9t-12 -23v-60l-14 -13h-120l-14 13v60q0 14 -10 23t-23 9q-24 0 -42.5 -22t-31.5 -60.5t-20 -89t-7 -107.5t10 -106.5t32.5 -86t59.5 -57.5t91 -21q5 0 10.5 0.5t14.5 2.5h14v-155 q-14 -5 -30.5 -9t-33.5 -4q-81 0 -143 36t-104.5 96t-64 139t-21.5 165q0 91 17 172t50.5 141.5t83 95.5t115.5 35q32 0 59 -13.5t50 -36.5q25 23 58 36.5t62 13.5q41 0 76.5 -15.5t61.5 -42t40.5 -62.5t14.5 -77v-371z" />
<glyph unicode="&#xe13;" horiz-adv-x="1252" d="M1142 174q0 -4 2.5 -7.5t8.5 -3.5q8 0 16.5 1t16.5 2h17v-150q-8 -6 -22.5 -11t-29.5 -5q-48 0 -87 23.5t-62 61.5q-32 -42 -73.5 -63.5t-89.5 -21.5q-72 0 -123.5 24.5t-85.5 66.5t-50 99t-16 122v256q0 31 -11.5 57.5t-31.5 46.5t-46.5 31.5t-57.5 11.5 q-60 0 -97.5 -14.5t-63.5 -50.5q11 -38 12.5 -79.5t1.5 -75.5v-318q0 -5 5 -11.5t11 -6.5q17 0 36 4t38 9h18v-152q-26 -8 -51.5 -14t-47.5 -6q-36 0 -67.5 13.5t-55.5 37.5t-37.5 55.5t-13.5 67.5v321q0 43 -7.5 82t-22.5 77q40 104 127 165t215 61q64 0 121 -24.5 t99.5 -66.5t67 -99t24.5 -122v-256q0 -31 6.5 -57.5t20 -46.5t34 -31.5t49.5 -11.5q30 0 55.5 12.5t44 33t28.5 47t10 54.5v551l17 17h131l17 -17v-689z" />
<glyph unicode="&#xe14;" horiz-adv-x="842" d="M720 0h-131l-17 17v551q0 31 -11.5 57.5t-31 46.5t-46.5 31.5t-57 11.5q-54 0 -91 -22t-59.5 -60.5t-32.5 -89t-10 -107.5t10 -106.5t32.5 -86t59.5 -57.5t91 -21q14 0 27 1.5t29 4.5h14v-151q-12 -8 -31 -14t-39 -6q-93 0 -161 34t-111.5 93t-64.5 138.5t-21 170.5 t21 172t64.5 141.5t111.5 95.5t161 35q64 0 121 -24.5t99 -66.5t66.5 -99t24.5 -122v-551z" />
<glyph unicode="&#xe15;" horiz-adv-x="860" d="M380 610l-14 13v60q0 14 -10 23t-23 9q-24 0 -42.5 -22t-31.5 -60.5t-20 -89t-7 -107.5t10 -106.5t32.5 -86t59.5 -57.5t91 -21q14 0 27 1.5t29 4.5h14v-151q-12 -8 -31 -14t-39 -6q-93 0 -160.5 34t-111.5 93t-65 138.5t-21 170.5t17 172t50.5 141.5t83 95.5t115.5 35 q32 0 59 -13.5t50 -36.5q25 23 58 36.5t62 13.5q41 0 76.5 -15.5t61.5 -42t40.5 -62.5t14.5 -77v-666l-17 -17h-131l-17 17v666q0 14 -12.5 23t-25.5 9q-14 0 -26 -9t-12 -23v-60l-14 -13h-120z" />
<glyph unicode="&#xe16;" horiz-adv-x="834" d="M270 177q0 -5 5 -11.5t11 -6.5q17 0 36 4t38 9h18v-152q-26 -8 -51.5 -14t-47.5 -6q-36 0 -67.5 13.5t-55.5 37.5t-37.5 55.5t-13.5 67.5v321q0 43 -7.5 82t-22.5 77q40 104 127 165t215 61q64 0 121 -24.5t99.5 -66.5t67 -99t24.5 -122v-551l-17 -17h-131l-17 17v551 q0 31 -11.5 57.5t-31.5 46.5t-46.5 31.5t-57.5 11.5q-60 0 -97.5 -14.5t-63.5 -50.5q11 -38 12.5 -79.5t1.5 -75.5v-318z" />
<glyph unicode="&#xe17;" horiz-adv-x="838" d="M568 17v551q0 31 -11.5 57.5t-31.5 46.5t-46.5 31.5t-57.5 11.5q-30 0 -57 -11.5t-46.5 -31.5t-31 -46.5t-11.5 -57.5v-551l-17 -17h-131l-17 17v689q0 5 -3 8.5t-8 3.5q-10 0 -18.5 -1t-19.5 -3h-13v150q11 8 26 12t26 4q48 0 87.5 -23t62.5 -57q34 38 78 59t93 21 q70 0 127.5 -24.5t98.5 -66.5t63.5 -99t22.5 -122v-551l-17 -17h-131z" />
<glyph unicode="&#x2219;" horiz-adv-x="838" d="M568 17v551q0 31 -11.5 57.5t-31.5 46.5t-46.5 31.5t-57.5 11.5q-30 0 -57 -11.5t-46.5 -31.5t-31 -46.5t-11.5 -57.5v-551l-17 -17h-131l-17 17v689q0 5 -3 8.5t-8 3.5q-10 0 -18.5 -1t-19.5 -3h-13v150q11 8 26 12t26 4q48 0 87.5 -23t62.5 -57q34 38 78 59t93 21 q70 0 127.5 -24.5t98.5 -66.5t63.5 -99t22.5 -122v-551l-17 -17h-131z" />
<glyph unicode="&#xe18;" horiz-adv-x="768" d="M250 177q44 -7 83.5 -9.5t90.5 -2.5q21 0 39.5 8t32 21.5t21.5 32t8 39.5q0 24 -7.5 45.5t-21 38t-31.5 26t-39 9.5h-101q-51 0 -98 16.5t-83 47.5t-57 74.5t-21 99.5q0 53 20.5 100t55.5 82t82 55.5t100 19.5q40 -1 78 -3.5t76 -6.5t77 -9.5t83 -12.5v-156l-12 -9 q-79 14 -154 23t-149 9q-19 0 -35.5 -7t-29 -19.5t-20 -29.5t-7.5 -36q0 -35 28 -54t66 -19h101q55 0 103 -22.5t84 -61t56.5 -90t20.5 -110.5q0 -55 -21 -103.5t-57 -84.5t-84.5 -57t-103.5 -21q-83 0 -162.5 9t-176.5 29v288l17 17h131l17 -17v-149z" />
<glyph unicode="&#xe19;" horiz-adv-x="843" d="M110 706q0 5 -3 10t-10 5q-9 0 -19 -2t-20 -5h-9v150q16 8 31.5 12t32.5 4q31 0 61 -12.5t53 -34t36 -50t12 -59.5v-412q0 -31 11.5 -57.5t31.5 -46.5t46.5 -31.5t57.5 -11.5q30 0 57 11.5t46.5 31.5t31 46.5t11.5 57.5v551l17 17h131l17 -17v-689q0 -4 2.5 -8t7.5 -4 q10 0 20.5 1t19.5 3h12v-150q-31 -16 -64 -16q-42 0 -80.5 23.5t-58.5 61.5q-35 -42 -77.5 -63.5t-92.5 -21.5q-70 0 -127.5 24.5t-98.5 66.5t-63.5 99t-22.5 122v394z" />
<glyph unicode="&#xe1a;" horiz-adv-x="857" d="M110 706q0 5 -3 10t-10 5q-9 0 -19 -2t-20 -5h-9v150q16 8 31.5 12t32.5 4q31 0 61 -12.5t53 -34t36 -50t12 -59.5v-458q0 -21 8 -39.5t21.5 -32t31.5 -21.5t39 -8h111q21 0 39.5 8t32 21.5t21.5 32t8 39.5v597l17 17h131l17 -17v-597q0 -55 -21 -103.5t-57 -84.5 t-84.5 -57t-103.5 -21h-111q-55 0 -103 21t-84 57t-57 84.5t-21 103.5v440z" />
<glyph unicode="&#xe1b;" horiz-adv-x="857" d="M110 706q0 5 -3 10t-10 5q-9 0 -19 -2t-20 -5h-9v150q16 8 31.5 12t32.5 4q31 0 61 -12.5t53 -34t36 -50t12 -59.5v-458q0 -21 8 -39.5t21.5 -32t31.5 -21.5t39 -8h111q21 0 39.5 8t32 21.5t21.5 32t8 39.5v867l17 17h131l17 -17v-867q0 -55 -21 -103.5t-57 -84.5 t-84.5 -57t-103.5 -21h-111q-55 0 -103 21t-84 57t-57 84.5t-21 103.5v440z" />
<glyph unicode="&#xe1c;" horiz-adv-x="1060" d="M610 706v-436q0 -45 26 -75t64 -30t64 30t26 75v593l17 17h131l17 -17v-593q0 -55 -18 -104t-51 -86t-80 -58.5t-106 -21.5q-54 0 -97.5 23.5t-75.5 61.5q-32 -38 -75.5 -61.5t-96.5 -23.5q-59 0 -106 21.5t-80 58.5t-51 86t-18 104v454q-1 31 12 59.5t35.5 50t52 34 t61.5 12.5q31 0 65 -16v-150h-13q-8 2 -18.5 3.5t-18.5 1.5q-5 0 -8 -4t-3 -9v-436q0 -45 26 -75t64 -30q37 0 63.5 28.5t26.5 76.5v436l17 17h131z" />
<glyph unicode="&#xe1d;" horiz-adv-x="1060" d="M610 706v-436q0 -45 26 -75t64 -30t64 30t26 75v863l17 17h131l17 -17v-863q0 -55 -18 -104t-51 -86t-80 -58.5t-106 -21.5q-54 0 -97.5 23.5t-75.5 61.5q-32 -38 -75.5 -61.5t-96.5 -23.5q-59 0 -106 21.5t-80 58.5t-51 86t-18 104v454q-1 31 12 59.5t35.5 50t52 34 t61.5 12.5q31 0 65 -16v-150h-13q-8 2 -18.5 3.5t-18.5 1.5q-5 0 -8 -4t-3 -9v-436q0 -45 26 -75t64 -30q37 0 63.5 28.5t26.5 76.5v436l17 17h131z" />
<glyph unicode="&#xe1e;" horiz-adv-x="1070" d="M110 706q0 5 -3 10t-10 5q-9 0 -19 -2t-20 -5h-9v150q16 8 31.5 12t32.5 4q31 0 61 -12.5t53 -34t36 -50t12 -59.5v-454q0 -45 26 -75t64 -30q37 0 63.5 28.5t26.5 76.5v436l17 17h131l17 -17v-436q0 -45 26 -75t64 -30t64 30t26 75v593l17 17h131l17 -17v-593 q0 -55 -18 -104t-51 -86t-80 -58.5t-106 -21.5q-54 0 -97.5 23.5t-75.5 61.5q-32 -38 -75.5 -61.5t-96.5 -23.5q-59 0 -106 21.5t-80 58.5t-51 86t-18 104v436z" />
<glyph unicode="&#xe1f;" horiz-adv-x="1070" d="M110 706q0 5 -3 10t-10 5q-9 0 -19 -2t-20 -5h-9v150q16 8 31.5 12t32.5 4q31 0 61 -12.5t53 -34t36 -50t12 -59.5v-454q0 -45 26 -75t64 -30q37 0 63.5 28.5t26.5 76.5v436l17 17h131l17 -17v-436q0 -45 26 -75t64 -30t64 30t26 75v863l17 17h131l17 -17v-863 q0 -55 -18 -104t-51 -86t-80 -58.5t-106 -21.5q-54 0 -97.5 23.5t-75.5 61.5q-32 -38 -75.5 -61.5t-96.5 -23.5q-59 0 -106 21.5t-80 58.5t-51 86t-18 104v436z" />
<glyph unicode="&#xe20;" horiz-adv-x="838" d="M114 0q-37 0 -66 16v150h14q8 -2 18.5 -3.5t18.5 -1.5q5 0 8 4.5t3 8.5v321q0 84 -31 159q41 104 128 165t214 61q65 0 122 -24.5t99 -66.5t66.5 -99t24.5 -122v-551l-17 -17h-131l-17 17v551q0 31 -11.5 57.5t-31.5 46.5t-46.5 31.5t-57.5 11.5q-60 0 -97.5 -14.5 t-63.5 -50.5q11 -38 13 -79.5t2 -75.5v-321q0 -36 -11.5 -67.5t-32.5 -55.5t-51 -37.5t-66 -13.5z" />
<glyph unicode="&#xe21;" horiz-adv-x="837" d="M110 706q0 5 -3 10t-10 5q-9 0 -19 -2t-20 -5h-9v150q16 8 31.5 12t32.5 4q31 0 61 -12.5t53 -34t36 -50t12 -59.5v-412q0 -31 11.5 -57.5t31 -46.5t46 -31.5t56.5 -11.5q31 0 58 11.5t46.5 31.5t31 46.5t11.5 57.5v551l17 17h131l17 -17v-551q0 -65 -22.5 -122t-63 -99 t-98.5 -66.5t-128 -24.5q-45 0 -90 23.5t-78 61.5q-19 -38 -57.5 -61.5t-80.5 -23.5q-37 0 -66 16v150h14q8 -2 18.5 -3.5t18.5 -1.5q5 0 8 4.5t3 8.5v532z" />
<glyph unicode="&#xe22;" horiz-adv-x="813" d="M543 863l17 17h131l17 -17v-551q0 -65 -24.5 -122t-66.5 -99t-98.5 -66.5t-120.5 -24.5q-65 0 -123.5 23.5t-103 64.5t-70.5 96.5t-26 120.5q0 58 31.5 105t76.5 80q-45 32 -76.5 79t-31.5 100q0 47 18.5 86t49 66.5t70 43t82.5 15.5q30 0 60 -8t59 -26v-148h-22 q-22 7 -52 13t-54 6q-20 0 -33 -14t-13 -34q0 -27 13.5 -47t36.5 -33.5t54 -20.5t66 -7l13 -13v-120q-38 0 -71.5 -9t-58.5 -25t-39 -38.5t-14 -50.5q0 -31 13 -56.5t35 -44t50.5 -29t59.5 -10.5q30 0 56.5 10.5t46 29t31 44t11.5 56.5v558z" />
<glyph unicode="&#xe23;" horiz-adv-x="748" d="M303 714q-18 0 -34.5 -7t-29 -19.5t-19.5 -29t-7 -35.5t7 -36t19.5 -29.5t29 -19.5t35.5 -7h101q55 0 103.5 -20.5t84.5 -56.5t56.5 -84.5t20.5 -103.5t-20.5 -103.5t-56.5 -84.5t-84.5 -57t-103.5 -21q-23 0 -46 0.5t-51.5 2.5t-64.5 6.5t-84 12.5v162l12 4 q30 -7 63.5 -11.5t66 -7t60 -3.5t44.5 -1q21 0 39.5 8t32 21.5t21.5 32t8 39.5t-8 39t-21.5 32t-32 22t-39.5 8h-101q-53 0 -99.5 20t-81.5 55t-55.5 81.5t-20.5 99.5t20.5 99.5t55.5 81.5t81.5 55.5t99.5 20.5q41 -1 79 -3.5t76 -6.5t77 -9.5t83 -12.5v-160l-17 -6 q-79 15 -151.5 23.5t-146.5 8.5h-1z" />
<glyph unicode="&#xe24;" horiz-adv-x="834" d="M270 177q0 -5 5 -11.5t11 -6.5q17 0 36 4t38 9h18v-152q-26 -8 -51.5 -14t-47.5 -6q-36 0 -67.5 13.5t-55.5 37.5t-37.5 55.5t-13.5 67.5v321q0 43 -7.5 82t-22.5 77q40 104 127 165t215 61q64 0 121 -24.5t99.5 -66.5t67 -99t24.5 -122v-851l-17 -17h-131l-17 17v851 q0 31 -11.5 57.5t-31.5 46.5t-46.5 31.5t-57.5 11.5q-60 0 -97.5 -14.5t-63.5 -50.5q11 -38 12.5 -79.5t1.5 -75.5v-318z" />
<glyph unicode="&#xe25;" horiz-adv-x="798" d="M89 668q20 47 50.5 86t68.5 67t82 43.5t92 15.5q64 0 121 -24.5t99 -67t66.5 -99.5t24.5 -121v-551l-17 -17h-131l-17 17v272q0 26 -16 48.5t-41 39.5t-55 26.5t-57 9.5q-26 0 -48.5 -9.5t-39.5 -26.5t-26.5 -39.5t-9.5 -48.5t9.5 -48.5t26.5 -39.5t39.5 -26.5t48.5 -9.5 q13 0 31.5 1.5t29.5 3.5h17v-154q-46 -16 -87 -16q-56 0 -107 23t-89.5 63t-61 92t-22.5 111q0 60 22.5 111.5t62 89.5t92 59.5t112.5 21.5q43 0 86 -17t83 -59v73q0 31 -11.5 57.5t-31 46t-46.5 31t-57 11.5q-21 0 -42 -7t-40.5 -20t-36 -30t-28.5 -37l-14 -5z" />
<glyph unicode="&#xe26;" horiz-adv-x="848" d="M119 0q-37 0 -66 16v150h14q8 -2 18.5 -3.5t18.5 -1.5q5 0 8 4.5t3 8.5v321q0 84 -31 159q41 104 128 165t214 61q65 0 122 -24.5t99 -66.5t66.5 -99t24.5 -122v-851l-17 -17h-131l-17 17v851q0 31 -11.5 57.5t-31.5 46.5t-46.5 31.5t-57.5 11.5q-60 0 -97.5 -14.5 t-63.5 -50.5q11 -38 13 -79.5t2 -75.5v-321q0 -36 -11.5 -67.5t-32.5 -55.5t-51 -37.5t-66 -13.5z" />
<glyph unicode="&#xe27;" horiz-adv-x="754" d="M353 714q-28 0 -55.5 -12.5t-50.5 -34.5t-39 -51t-21 -62l-18 -2l-127 55q13 58 42.5 108t70.5 87t91.5 57.5t106.5 20.5q64 0 121 -24.5t99 -67t66.5 -99.5t24.5 -121v-302q0 -55 -21 -103.5t-57 -84.5t-84 -57t-103 -21q-35 0 -72 11.5t-75 32.5v149h19q13 -6 30.5 -11 t35 -8.5t34 -6t28.5 -2.5q21 0 39.5 8t32 21.5t21.5 32t8 39.5v302q0 31 -11.5 57.5t-31.5 46t-47 31t-57 11.5z" />
<glyph unicode="&#xe28;" horiz-adv-x="861" d="M431 880q51 0 99 -1t94 2t90.5 11.5t89.5 27.5l29 -143q-12 -9 -34.5 -15t-47.5 -9.5t-49.5 -5t-40.5 -1.5q17 -12 34 -32t30.5 -45t22 -51t8.5 -50v-551l-17 -17h-131l-17 17v538q0 33 -12.5 62t-34 51t-51 34.5t-62.5 12.5t-62.5 -12.5t-51.5 -34.5t-34.5 -51 t-12.5 -62v-145q73 76 161 76q18 0 38 -5.5t34 -14.5v-149l-16 -4q-10 4 -27.5 6t-28.5 2q-33 0 -62.5 -12.5t-51.5 -34.5t-34.5 -51.5t-12.5 -62.5v-143l-17 -17h-131l-17 17v538q0 67 25.5 126t70 103.5t103.5 70t127 25.5z" />
<glyph unicode="&#xe29;" horiz-adv-x="857" d="M587 266q0 33 -12.5 62.5t-34.5 51.5t-51.5 34.5t-62.5 12.5q-11 0 -22 -2t-21 -4h-18v153q14 8 28.5 13t32.5 5q88 0 161 -76v347l17 17h131l17 -17v-597q0 -55 -21 -103.5t-57 -84.5t-84.5 -57t-103.5 -21h-111q-55 0 -103 21t-84 57t-57 84.5t-21 103.5v440q0 5 -3 10 t-10 5q-9 0 -19 -2t-20 -5h-9v150q16 8 31.5 12t32.5 4q31 0 61 -12.5t53 -34t36 -50t12 -59.5v-458q0 -21 8 -39.5t21.5 -32t31.5 -21.5t39 -8h111q21 0 39.5 8t32 21.5t21.5 32t8 39.5z" />
<glyph unicode="&#xe2a;" horiz-adv-x="798" d="M382 880q51 0 97 -1t89 2t85.5 11.5t87.5 27.5l29 -143q-12 -9 -32.5 -15t-43.5 -9t-46 -4.5t-39 -1.5q17 -15 32 -36t26.5 -45t18.5 -49t7 -49v-551l-17 -17h-131l-17 17v272q0 26 -16 48.5t-41 39.5t-55 26.5t-57 9.5q-26 0 -48.5 -9.5t-39.5 -26.5t-26.5 -39.5 t-9.5 -48.5t9.5 -48.5t26.5 -39.5t39.5 -26.5t48.5 -9.5q13 0 31.5 1.5t29.5 3.5h17v-154q-46 -16 -87 -16q-56 0 -107 23t-89.5 63t-61 92t-22.5 111q0 60 22.5 111.5t62 89.5t92 59.5t112.5 21.5q43 0 86 -17t83 -59v73q0 31 -11.5 57.5t-31 46t-46.5 31t-57 11.5 q-21 0 -42 -7t-40.5 -20t-36 -30t-28.5 -37l-14 -5l-132 53q20 47 50.5 86t68.5 67t82 43.5t92 15.5z" />
<glyph unicode="&#xe2b;" horiz-adv-x="824" d="M258 0h-131l-17 17v689q0 5 -3 10t-10 5q-9 0 -19 -2t-20 -5h-9v150q16 8 31.5 12t32.5 4q31 0 61 -12.5t53 -34t36 -50t12 -59.5v-150q144 7 210 76.5t66 201.5l13 11l148 17q0 -68 -8 -122.5t-22 -97t-34.5 -75t-45.5 -57.5q29 -14 54 -34.5t43.5 -48t29 -61.5 t10.5 -74v-293l-17 -17h-131l-17 17v293q0 23 -11.5 44t-30 38t-43.5 29t-52 17q-36 -11 -78 -16t-84 -7v-398z" />
<glyph unicode="&#xe2c;" horiz-adv-x="1070" d="M800 564q0 24 -14 50.5t-35.5 50.5t-47.5 42t-49 25v114l11 21q25 7 49.5 21.5t43.5 35t30.5 45.5t11.5 53q0 6 -1.5 16t-4 22t-5.5 24t-6 21l34 34l124 11q5 -13 9.5 -29.5t7.5 -33.5t5 -34t2 -31q0 -35 -9.5 -69.5t-26 -65t-40.5 -55t-52 -39.5q32 -18 56 -43t40 -55 t24 -63.5t8 -67.5v-294q0 -55 -18 -104t-51 -86t-80 -58.5t-106 -21.5q-54 0 -97.5 23.5t-75.5 61.5q-32 -38 -75.5 -61.5t-96.5 -23.5q-59 0 -106 21.5t-80 58.5t-51 86t-18 104v436q0 5 -3 10t-10 5q-9 0 -19 -2t-20 -5h-9v150q16 8 31.5 12t32.5 4q31 0 61 -12.5t53 -34 t36 -50t12 -59.5v-454q0 -45 26 -75t64 -30q37 0 63.5 28.5t26.5 76.5v373l17 17h131l17 -17v-373q0 -45 26 -75t64 -30t64 30t26 75v294z" />
<glyph unicode="&#xe2d;" horiz-adv-x="797" d="M393 714q-24 0 -50 -8t-50 -21.5t-44.5 -31t-32.5 -37.5l-14 -5l-132 53q19 52 52.5 92.5t76.5 68t92.5 41.5t101.5 14q64 0 121.5 -24.5t100 -67t67.5 -99.5t25 -121v-256q0 -65 -25 -122t-67.5 -99t-100 -66.5t-121.5 -24.5q-65 0 -123.5 24.5t-103 66.5t-70.5 99 t-26 122q0 60 22.5 108t61 81.5t88.5 51.5t106 18q52 0 106 -17v-146l-16 -4q-10 4 -27.5 6t-28.5 2v1q-31 0 -57.5 -5.5t-46.5 -17.5t-31.5 -31t-11.5 -47q0 -31 13 -57.5t35 -46.5t50.5 -31.5t59.5 -11.5q30 0 57.5 11.5t48 31.5t32.5 46.5t12 57.5v256q0 31 -12 57.5 t-32.5 46t-48 31t-57.5 11.5z" />
<glyph unicode="&#xe2e;" horiz-adv-x="797" d="M393 880q51 0 97.5 -1t90 2t86.5 11.5t88 27.5l29 -143q-12 -9 -34 -15t-46 -10t-48 -5.5t-40 -1.5q17 -15 33.5 -35.5t29 -44t20.5 -48.5t8 -49v-256q0 -65 -25 -122t-67.5 -99t-100 -66.5t-121.5 -24.5q-65 0 -123.5 24.5t-103 66.5t-70.5 99t-26 122q0 60 22.5 108 t61 81.5t88.5 51.5t106 18q52 0 106 -17v-146l-16 -4q-10 4 -27.5 6t-28.5 2v1q-31 0 -57.5 -5.5t-46.5 -17.5t-31.5 -31t-11.5 -47q0 -31 13 -57.5t35 -46.5t50.5 -31.5t59.5 -11.5q30 0 57.5 11.5t48 31.5t32.5 46.5t12 57.5v256q0 31 -12 57.5t-32.5 46t-48 31 t-57.5 11.5q-24 0 -50 -8t-50 -21.5t-44.5 -31t-32.5 -37.5l-14 -5l-132 53q19 52 52.5 92.5t76.5 68t92.5 41.5t101.5 14z" />
<glyph unicode="&#xe2f;" horiz-adv-x="685" d="M558 0h-131l-17 17v533q-10 -10 -23.5 -18.5t-29 -15t-31 -10t-28.5 -3.5q-55 0 -103.5 21t-84.5 57t-57 84.5t-21 102.5q0 30 7 55t18 53l14 4l141 -28l3 -11q-5 -13 -11 -30t-6 -43q0 -20 7.5 -38t21 -31.5t32 -21.5t39.5 -8t41.5 8t36 21.5t25 31.5t9.5 38v95l17 17 h131l17 -17v-846z" />
<glyph unicode="&#xe30;" horiz-adv-x="489" d="M219 590q-74 0 -124 47t-56 140l132 32l14 -6q0 -23 11 -35.5t23 -12.5h212l17 -17v-131l-17 -17h-212zM219 130q-74 0 -124 47t-56 140l132 32l14 -6q0 -23 11 -35.5t23 -12.5h212l17 -17v-131l-17 -17h-212z" />
<glyph unicode="&#xe31;" d="M-127 950h-312q-36 0 -67 9t-54 29.5t-36.5 53t-13.5 79.5q0 22 5 38.5t14 40.5h141v-15q-11 -39 -11 -61q0 -12 7 -24t15 -12h312l17 -17v-104z" />
<glyph unicode="&#xe32;" horiz-adv-x="700" d="M583 0h-131l-17 17v551q0 31 -11.5 57.5t-31 46t-46.5 31t-57 11.5q-17 0 -35.5 -6t-36.5 -15.5t-34.5 -22.5t-29.5 -27l-15 -2l-106 109q54 60 120 95t137 35q64 0 121 -24.5t99 -67t66.5 -99.5t24.5 -121v-551z" />
<glyph unicode="&#xe33;" horiz-adv-x="700" d="M-401 1057q0 29 11 54.5t30 44.5t44.5 30t54.5 11t54.5 -11t44.5 -30t30 -44.5t11 -54.5t-11 -55t-30 -45t-44.5 -30t-54.5 -11t-54.5 11t-44.5 30t-30 45t-11 55zM583 0h-131l-17 17v551q0 31 -11.5 57.5t-31 46t-46.5 31t-57 11.5q-17 0 -35.5 -6t-36.5 -15.5 t-34.5 -22.5t-29.5 -27l-15 -2l-106 109q54 60 120 95t137 35q64 0 121 -24.5t99 -67t66.5 -99.5t24.5 -121v-551zM-311 1057q0 -21 14.5 -36t35.5 -15t35.5 15t14.5 36t-14.5 35.5t-35.5 14.5t-35.5 -14.5t-14.5 -35.5z" />
<glyph unicode="&#xe34;" d="M-400 1132q76 0 154 -21.5t140 -73.5l1 -17l-60 -89l-17 -1q-18 11 -46 21t-58.5 17.5t-60.5 12t-53 4.5t-53 -4.5t-60.5 -12t-58.5 -17.5t-46 -21l-17 1l-60 89l1 17q62 52 140 73.5t154 21.5z" />
<glyph unicode="&#xe35;" d="M-695 1020l1 17q62 52 140 73.5t154 21.5q33 0 67.5 -4t67.5 -13v69l16 16h128l16 -16v-164l-60 -89l-17 -1q-18 11 -46 21t-58.5 17.5t-60.5 12t-53 4.5t-53 -4.5t-60.5 -12t-58.5 -17.5t-46 -21l-17 1z" />
<glyph unicode="&#xe36;" d="M-279 1071q0 -22 15 -37t37 -15t37 15t15 37t-15 37t-37 15t-37 -15t-15 -37zM-695 1020l1 17q62 52 140 73.5t154 21.5q15 0 33 -3.5t29 -7.5q15 32 44.5 52t66.5 20q25 0 47.5 -9.5t39 -26t26 -39t9.5 -47.5t-9.5 -47.5t-26 -39t-39 -26t-47.5 -9.5q-20 0 -41 5.5 t-42.5 12.5t-44 12.5t-45.5 5.5t-53 -4.5t-60.5 -12t-58.5 -17.5t-46 -21l-17 1z" />
<glyph unicode="&#xe37;" d="M-222 1184l16 16h85l16 -16v-164l-60 -89l-17 -1q-18 11 -46 21t-58.5 17.5t-60.5 12t-53 4.5t-53 -4.5t-60.5 -12t-58.5 -17.5t-46 -21l-17 1l-60 89l1 17q31 26 66.5 42.5t73.5 26.5t77 13.5t77 3.5v61l16 16h85l16 -16v-70q15 -1 32.5 -4t28.5 -5v79z" />
<glyph unicode="&#xe38;" d="M-288 -373v148q-19 0 -41.5 -4t-30.5 -8l-15 2v160q27 8 53 11.5t48 3.5q32 0 58.5 -12.5t45.5 -33.5t29.5 -49t10.5 -60v-158l-17 -17h-124z" />
<glyph unicode="&#xe39;" d="M-249 -60h102l17 -17v-182q0 -27 -10.5 -51t-28 -42t-41.5 -28t-51 -10h-55q-27 0 -50.5 10.5t-41.5 28.5t-28 42t-10 51v38q-9 0 -18 -3t-17 -7h-11v157q14 5 28.5 9t31.5 4q70 0 95.5 -38.5t25.5 -116.5v-44h45v182z" />
<glyph unicode="&#xe3a;" d="M-364 -177q0 24 9.5 45.5t25 37.5t37 25t45.5 9t45.5 -9t37.5 -25t25 -37.5t9 -45.5t-9 -45t-25 -37t-37.5 -25t-45.5 -9t-45.5 9t-37 25t-25 37t-9.5 45z" />
<glyph unicode="&#xe3b;" />
<glyph unicode="&#xe3c;" />
<glyph unicode="&#xe3d;" />
<glyph unicode="&#xe3e;" />
<glyph unicode="&#xe3f;" horiz-adv-x="1025" d="M556 1150h16q67 0 126.5 -25.5t104 -70t70 -104t25.5 -127.5q0 -60 -21 -114t-69 -97q64 -48 100 -116.5t36 -146.5q0 -72 -27.5 -135.5t-75 -111t-111 -75t-135.5 -27.5h-39v-137l-14 -13h-108l-14 13v137h-119q-39 0 -74 15t-61 41t-41 60.5t-15 74.5v768q0 40 15 74.5 t41 60.5t61 41t74 15h119v137l14 13h108l14 -13v-137zM556 497v-296h39q30 0 57 11.5t47.5 32t32 47.5t11.5 57q0 31 -11.5 58t-32 47t-47.5 31.5t-57 11.5h-39zM420 201v296h-108v-282q0 -6 3.5 -10t8.5 -4h96zM556 949v-250h16q26 0 49 9.5t40 26.5t26.5 39.5t9.5 48.5 t-9.5 49t-26.5 40t-40 27t-49 10h-16zM312 699h108v250h-96q-5 0 -8.5 -4t-3.5 -10v-236z" />
<glyph unicode="&#xe40;" horiz-adv-x="391" d="M276 863v-705q13 0 34 5t31 9h20v-152q-26 -8 -51.5 -14t-47.5 -6q-31 0 -58.5 12t-48 32.5t-32.5 48t-12 58.5v712l17 17h131z" />
<glyph unicode="&#xe41;" horiz-adv-x="703" d="M275 863v-705q13 0 34 5t31 9h20v-152q-26 -8 -51.5 -14t-47.5 -6q-31 0 -58.5 12t-48 32.5t-32.5 48t-12 58.5v712l17 17h131zM588 863v-705q13 0 34 5t31 9h20v-152q-26 -8 -51.5 -14t-47.5 -6q-31 0 -58.5 12t-48 32.5t-32.5 48t-12 58.5v712l17 17h131z" />
<glyph unicode="&#xe42;" horiz-adv-x="410" d="M162 1197q-6 0 -9 -8.5t-3 -12.5q0 -17 22 -39t48 -48.5t48 -57t22 -64.5v-809q13 0 34 5t31 9h20v-152q-26 -8 -51.5 -14t-47.5 -6q-31 0 -58.5 12t-48 32.5t-32.5 48t-12 58.5v787q0 32 -21.5 57.5t-47 51.5t-47 56.5t-21.5 72.5q0 36 13.5 67.5t37 55.5t55 37.5 t67.5 13.5h285l17 -17v-119l-17 -17h-284z" />
<glyph unicode="&#xe43;" horiz-adv-x="415" d="M295 158q13 0 34 5t31 9h20v-152q-26 -8 -51.5 -14t-47.5 -6q-31 0 -58.5 12t-48 32.5t-32.5 48t-12 58.5v658q0 44 9 75.5t23 56t29.5 44t29.5 38t23 38.5t9 46q0 32 -22.5 55t-55.5 23q-12 0 -26 -6t-27 -16t-23.5 -23.5t-16.5 -27.5l-12 -3l-131 59q33 84 95.5 133 t140.5 49q50 0 94.5 -19t77.5 -52t52 -77.5t19 -94.5q0 -41 -19 -78.5t-42.5 -72t-42.5 -67t-19 -65.5v-666z" />
<glyph unicode="&#xe44;" horiz-adv-x="415" d="M295 158q13 0 34 5t31 9h20v-152q-26 -8 -51.5 -14t-47.5 -6q-31 0 -58.5 12t-48 32.5t-32.5 48t-12 58.5v727q0 37 14 70t35.5 61.5t46.5 53t46.5 45t35.5 37.5t14 31q0 8 -5 13t-13 5q-37 0 -71.5 -1t-70 -2.5t-72 -4t-76.5 -6.5l-9 8v150q69 5 142 7.5t156 4.5 q36 0 68 -13.5t56 -37.5t37.5 -55.5t13.5 -67.5q0 -27 -13.5 -54t-34 -53.5t-44 -52t-44 -50.5t-34 -49.5t-13.5 -47.5v-711z" />
<glyph unicode="&#xe45;" horiz-adv-x="700" d="M583 -300h-131l-17 17v851q0 31 -11.5 57.5t-31 46t-46.5 31t-57 11.5q-17 0 -35.5 -6t-36.5 -15.5t-34.5 -22.5t-29.5 -27l-15 -2l-106 109q54 60 120 95t137 35q64 0 121 -24.5t99 -67t66.5 -99.5t24.5 -121v-851z" />
<glyph unicode="&#xe46;" horiz-adv-x="800" d="M525 683q0 14 -12.5 23t-25.5 9q-14 0 -26 -9t-12 -23v-60l-14 -13h-120l-14 13v60q0 14 -16 23t-29 9q-23 0 -39.5 -16t-16.5 -39t16.5 -46t40.5 -34l3 -16l-60 -123q-78 28 -121.5 88t-43.5 131q0 45 17.5 85t47.5 70t70.5 47.5t85.5 17.5q32 0 65 -13.5t56 -36.5 q25 23 58 36.5t62 13.5q41 0 76.5 -15.5t61.5 -42t40.5 -62.5t14.5 -77v-966l-17 -17h-131l-17 17v966z" />
<glyph unicode="&#xe47;" d="M-239 1074l15 5l59 -34l8 -17q-17 -40 -46.5 -69t-79.5 -29q-19 0 -43 10t-36 24q-14 -14 -32.5 -24t-35.5 -10q-29 0 -55 11.5t-45.5 31t-30.5 45.5t-11 55t11 52.5t30.5 40t45.5 25.5t55 9h322l17 -17v-66l-17 -17h-341q-10 0 -16 -8.5t-6 -18.5q0 -19 12 -30.5 t29 -11.5t29.5 11.5t12.5 31.5l4 4h53l4 -4q0 -20 12 -32.5t32 -12.5t32 12.5t12 32.5z" />
<glyph unicode="&#xe48;" d="M-110 1483v-216l-17 -17h-120l-17 17v216l17 17h120z" />
<glyph unicode="&#xe49;" d="M-331 1250q-23 0 -43.5 7.5t-36.5 22.5t-26 36.5t-11 49.5q-20 0 -36.5 -6t-27.5 -13h-16v134q23 10 50.5 14.5t52.5 4.5q49 0 77.5 -28t29.5 -81q55 -1 106 1t84 5h18l17 -17v-113l-17 -17h-221z" />
<glyph unicode="&#xe4a;" d="M-127 1250h-90l-17 17v31q0 12 -9 19.5t-22 7.5q-12 0 -20.5 -7.5t-8.5 -24.5l-6 -8h-77l-7 8q0 17 -10 28.5t-21 11.5q-14 0 -19 -6.5t-5 -15.5q0 -8 3 -15t8 -15v-16l-91 -26l-13 2q-15 17 -21.5 30.5t-6.5 39.5q0 30 11.5 56.5t31 46t46 31t56.5 11.5q21 0 43 -11 t37 -27q14 17 31.5 27.5t38.5 10.5q9 0 18 -3t13 -5v58l17 17h90l17 -17v-239z" />
<glyph unicode="&#xe4b;" d="M-309 1449v58l17 17h90l17 -17v-58h58l17 -17v-90l-17 -17h-58v-58l-17 -17h-90l-17 17v58h-58l-17 17v90l17 17h58z" />
<glyph unicode="&#xe4c;" d="M-127 1292h-257q-2 -11 -0.5 -20.5t9.5 -18.5l-4 -11l-126 -26q-5 13 -10 33.5t-5 30.5q0 30 11.5 56.5t31 46t46 31t56.5 11.5h248l17 -17v-99z" />
<glyph unicode="&#xe4d;" d="M-385 1072q0 29 11 54.5t30 44.5t44.5 30t54.5 11t54.5 -11t44.5 -30t30 -44.5t11 -54.5t-11 -55t-30 -45t-44.5 -30t-54.5 -11t-54.5 11t-44.5 30t-30 45t-11 55zM-295 1072q0 -21 14.5 -36t35.5 -15t35.5 15t14.5 36t-14.5 35.5t-35.5 14.5t-35.5 -14.5t-14.5 -35.5z " />
<glyph unicode="&#xe4e;" d="M-204 1240h-46q-38 0 -64 -26t-26 -64t26 -64t64 -26t64 26t26 64h60q0 -31 -12 -58.5t-32 -47.5t-47.5 -32t-58.5 -12t-58.5 12t-47.5 32t-32 47.5t-12 58.5q0 52 31.5 91.5t79.5 52.5q-11 22 -11 46q0 42 29 71t71 29h150v-60h-150q-17 0 -28.5 -11.5t-11.5 -28.5 t11.5 -28.5t28.5 -11.5v-60h-4z" />
<glyph unicode="&#xe4f;" horiz-adv-x="800" d="M100 400q0 62 23.5 117t64 95.5t95.5 64t117 23.5t117 -23.5t95.5 -64t64 -95.5t23.5 -117t-23.5 -117t-64 -95.5t-95.5 -64t-117 -23.5t-117 23.5t-95.5 64t-64 95.5t-23.5 117zM160 400q0 -50 19 -93.5t51.5 -76t76 -51.5t93.5 -19t93.5 19t76 51.5t51.5 76t19 93.5 t-19 93.5t-51.5 76t-76 51.5t-93.5 19t-93.5 -19t-76 -51.5t-51.5 -76t-19 -93.5zM250 400q0 31 12 58.5t32 47.5t47.5 32t58.5 12t58.5 -12t47.5 -32t32 -47.5t12 -58.5t-12 -58.5t-32 -47.5t-47.5 -32t-58.5 -12t-58.5 12t-47.5 32t-32 47.5t-12 58.5z" />
<glyph unicode="&#xe50;" horiz-adv-x="751" d="M70 395q0 63 24 119t65.5 97t97 65t118.5 24t119 -24t97.5 -65t65.5 -97t24 -119v-90q0 -63 -24 -119t-65.5 -97t-97.5 -65t-119 -24t-118.5 24t-97 65t-65.5 97t-24 119v90zM232 305q0 -30 11 -56t30.5 -45.5t45.5 -30.5t56 -11t56.5 11t46 30.5t30.5 45.5t11 56v90 q0 30 -11 56t-30.5 45.5t-46 30.5t-56.5 11t-56 -11t-45.5 -30.5t-30.5 -45.5t-11 -56v-90z" />
<glyph unicode="&#xe51;" horiz-adv-x="715" d="M339 151q30 0 56.5 13t46 34t30.5 49t11 58v90q0 30 -11 56t-30.5 45.5t-46 30.5t-56.5 11q-60 0 -93.5 -24.5t-33.5 -67.5q0 -45 20.5 -66t56.5 -21q17 0 33 2.5t30 8.5h16v-139q-17 -8 -43.5 -11t-48.5 -3q-55 0 -97.5 20.5t-71 53t-43 73.5t-14.5 82q0 53 21.5 99 t60 80.5t91.5 54.5t116 20t119 -24t97.5 -65t65.5 -97t24 -119v-90q0 -63 -24 -119t-65.5 -97t-97.5 -65t-119 -24q-18 0 -45.5 1.5t-58.5 5t-63.5 8.5t-60.5 11l31 150q17 -5 42.5 -9t53 -8t54.5 -6t47 -2z" />
<glyph unicode="&#xe52;" horiz-adv-x="930" d="M438 397v104q0 12 -7.5 25t-23.5 13t-31 -6.5t-26 -14.5l-22 6v146q17 14 33.5 22t45.5 8q31 0 61 -14.5t50 -40.5q28 26 60.5 40.5t63.5 14.5q40 0 77 -16t65 -43.5t44.5 -63.5t16.5 -76v-240q0 -54 -20.5 -101.5t-55.5 -83t-82.5 -56t-101.5 -20.5h-225 q-54 0 -101.5 20.5t-82.5 56t-55.5 83t-20.5 101.5v439q0 11 -2 33.5t-5 46.5t-6 45.5t-6 30.5l10 10l147 14q5 -13 9 -38t7 -52t5 -52t2 -38v-439q0 -42 28.5 -70.5t70.5 -28.5h225q41 0 69.5 28.5t28.5 70.5v240q0 14 -11 26t-30 12q-20 0 -31 -12t-11 -26v-104l-15 -15 h-132z" />
<glyph unicode="&#xe53;" horiz-adv-x="956" d="M629 538q-30 0 -51.5 -18t-23.5 -43v-211l-15 -15h-132l-15 15v211q-2 25 -23.5 43t-51.5 18q-32 0 -53.5 -17t-21.5 -44v-217q0 -41 28.5 -69.5t69.5 -28.5q16 0 39 2t39 4h19v-148q-16 -7 -45.5 -13.5t-51.5 -6.5q-54 0 -101 20.5t-82.5 56t-56 82.5t-20.5 101v217 q0 44 18.5 84.5t50.5 71t75 49t93 18.5q45 0 84.5 -15.5t71.5 -41.5q31 26 71 41.5t85 15.5q49 0 92.5 -18.5t75.5 -49t50.5 -71t18.5 -84.5v-462l-15 -15h-132l-15 15v462q0 27 -21.5 44t-53.5 17z" />
<glyph unicode="&#xe54;" horiz-adv-x="743" d="M232 261q-1 -23 8 -41.5t24 -31.5t34.5 -20t40.5 -7q20 0 38 6q-1 8 -1 14v13q0 40 15 75t41.5 61.5t61.5 41.5t76 15h48v-152l-11 -2q-8 2 -17 3t-20 1q-14 0 -24.5 -15t-10.5 -28q0 -14 10.5 -29.5t24.5 -15.5q23 0 45.5 6.5t33.5 10.5h19v-146q-26 -8 -51.5 -14 t-46.5 -6q-31 0 -59.5 16t-49.5 39q-11 -13 -27 -23t-33.5 -17t-36 -11t-34.5 -4q-54 0 -101 20.5t-82.5 56t-56 83t-20.5 101.5v180q-1 71 26.5 120.5t73 80t104 44.5t119.5 14q16 0 39 -1t44.5 1t37 10.5t15.5 28.5q0 8 -2.5 23t-7 32.5t-9.5 34t-9 27.5l12 11l149 13 q5 -13 10 -31.5t9.5 -38t7 -38.5t2.5 -33q0 -63 -25 -100t-64.5 -56.5t-89.5 -25.5t-100 -6q-95 0 -137.5 -30.5t-42.5 -79.5v-180z" />
<glyph unicode="&#xe55;" horiz-adv-x="743" d="M232 261q-1 -23 8 -41.5t24 -31.5t34.5 -20t40.5 -7q20 0 38 6q-1 8 -1 14v13q0 40 15 75t41.5 61.5t61.5 41.5t76 15h48v-152l-11 -2q-8 2 -17 3t-20 1q-14 0 -24.5 -15t-10.5 -28q0 -14 10.5 -29.5t24.5 -15.5q23 0 45.5 6.5t33.5 10.5h19v-146q-26 -8 -51.5 -14 t-46.5 -6q-31 0 -59.5 16t-49.5 39q-11 -13 -27 -23t-33.5 -17t-36 -11t-34.5 -4q-54 0 -101 20.5t-82.5 56t-56 83t-20.5 101.5v180q-1 49 12.5 87.5t37.5 67.5t56.5 49.5t70.5 32.5q-3 37 -11 67.5t-16 47.5l4 16l151 18q7 -13 13.5 -29.5t11 -33.5t7 -34t2.5 -30 q17 -1 38 -1.5t39 3t30.5 12t12.5 25.5q0 8 -2.5 23t-7 32.5t-9.5 34t-9 27.5l12 11l149 13q5 -13 10 -31.5t9.5 -38t7 -38.5t2.5 -33q0 -63 -25 -100t-64.5 -56.5t-89.5 -25.5t-100 -6q-95 0 -137.5 -30.5t-42.5 -79.5v-180z" />
<glyph unicode="&#xe56;" horiz-adv-x="807" d="M349 477q22 0 47 -4t50 -12v-138l-16 -3q-14 4 -37.5 8.5t-43.5 4.5q-32 0 -54 -22.5t-22 -54.5q0 -26 11 -44t30.5 -29t46 -16t56.5 -5t56 11t45.5 30.5t31 46t11.5 56.5v89q-6 45 -22.5 75.5t-39.5 49t-53 27t-63 8.5q-29 0 -60.5 -5.5t-63.5 -14t-64 -19t-62 -20.5 l-14 5q-7 41 -19.5 86t-28 89.5t-32 86.5t-31.5 77l10 14l141 26q23 -45 44.5 -101.5t31.5 -101.5q42 12 90 17.5t92 5.5q70 0 126.5 -24t96.5 -65t61 -97t21 -119v-89q0 -64 -24 -119.5t-65.5 -97t-97 -65.5t-118.5 -24t-119 18t-97.5 51t-65.5 80.5t-24 106.5 q0 49 19 89.5t51.5 70t75.5 45.5t92 16z" />
<glyph unicode="&#xe57;" horiz-adv-x="1216" d="M1122 205q0 -44 -14 -81.5t-41 -65t-66 -43t-88 -15.5q-50 0 -88.5 15.5t-65.5 43t-41 65t-14 81.5v272q0 27 -21.5 44t-53.5 17q-30 0 -51.5 -18t-23.5 -43v-211l-15 -15h-132l-15 15v211q-2 25 -23.5 43t-51.5 18q-32 0 -53.5 -17t-21.5 -44v-217q0 -41 28.5 -69.5 t69.5 -28.5q16 0 39 2t39 4h19v-148q-16 -7 -45.5 -13.5t-51.5 -6.5q-54 0 -101 20.5t-82.5 56t-56 82.5t-20.5 101v217q0 44 18.5 84.5t50.5 71t75 49t93 18.5q45 0 84.5 -15.5t71.5 -41.5q31 26 71 41.5t85 15.5q49 0 92.5 -18.5t75.5 -49t50.5 -71t18.5 -84.5v-272 q0 -18 12 -30.5t35 -12.5t35 12.5t12 30.5v495q0 11 -2 33.5t-5 46.5t-6 45.5t-6 30.5l10 10l147 14q5 -13 9 -38t7 -52t5 -52t2 -38v-495h1z" />
<glyph unicode="&#xe58;" horiz-adv-x="833" d="M473 216q0 -25 18 -39.5t50 -14.5q22 0 42 15t20 41q0 22 -12.5 43t-38.5 21q-7 0 -10 -2l-9 1v144q21 6 43 6q38 0 72.5 -18.5t60.5 -48.5t41 -68t15 -78q0 -45 -18.5 -84.5t-49 -69t-71 -47t-85.5 -17.5q-37 0 -75 17.5t-65 47.5q-24 -30 -55 -47.5t-65 -17.5 q-40 0 -76.5 15.5t-64 42.5t-44 63t-16.5 78v242q0 70 24.5 119.5t66.5 80.5t97.5 45t116.5 14q18 0 50 -3t63.5 -2t54.5 10t23 33q0 8 -2.5 22.5t-6.5 30.5t-8.5 31.5t-8.5 24.5l7 13l151 20q5 -13 10 -31.5t9.5 -38.5t7.5 -39t3 -33q0 -55 -15.5 -89.5t-42 -55t-62 -29 t-74.5 -10.5t-79.5 -0.5t-78.5 1.5q-25 0 -51 -5.5t-47 -19t-34 -35t-12 -54.5v-242q0 -17 13.5 -27t26.5 -10q14 0 29 9t15 28v141l15 15h117l15 -15v-124z" />
<glyph unicode="&#xe59;" horiz-adv-x="826" d="M622 0h-132l-15 15q-3 45 -10 101.5t-17.5 114.5t-24.5 113.5t-30 98.5t-34 69t-37 26q-38 0 -59.5 -28.5t-21.5 -70.5v-179q0 -42 28 -70.5t70 -28.5l37 4h18v-148q-11 -7 -24 -12t-31 -5q-54 0 -101 20.5t-82 55.5t-55.5 82.5t-20.5 101.5v179q0 54 17.5 101.5t49 83 t76.5 56t99 20.5q35 0 69 -19.5t57 -45.5q23 26 54 45.5t72 19.5q35 0 64 -12.5t49 -31.5q4 19 4 45t-2.5 53t-7 53t-10.5 45l13 13l142 15q16 -51 19 -109.5t-5 -115t-26 -107t-44 -84.5l-15 -10h-106l-14 9q-5 28 -21 51.5t-40 23.5q-11 0 -24 -6t-14 -20 q19 -48 35 -106.5t28.5 -122.5t22 -132t15.5 -136z" />
<glyph unicode="&#xe5a;" horiz-adv-x="978" d="M558 0h-131l-17 17v533q-10 -10 -23.5 -18.5t-29 -15t-31 -10t-28.5 -3.5q-55 0 -103.5 21t-84.5 57t-57 84.5t-21 102.5q0 30 7 55t18 53l14 4l141 -28l3 -11q-5 -13 -11 -30t-6 -43q0 -20 7.5 -38t21 -31.5t32 -21.5t39.5 -8t41.5 8t36 21.5t25 31.5t9.5 38v95l17 17 h131l17 -17v-846zM703 863l17 17h131l17 -17v-846l-17 -17h-131l-17 17v846z" />
<glyph unicode="&#xe5b;" horiz-adv-x="1069" d="M880 399h115l13 -12q0 -37 -13 -72t-36 -62t-54 -43.5t-66 -16.5q-23 0 -47.5 12t-39.5 30q-20 -29 -54 -47t-69 -18q-29 0 -55.5 14t-45.5 36q-15 -24 -37.5 -46t-49.5 -38.5t-56.5 -26t-59.5 -9.5q-55 0 -103 20.5t-83.5 56t-56 83.5t-20.5 102t20.5 102t56 83.5 t83.5 56t103 20.5q45 0 88 -18t83 -49l-87 -111l-9 -3q-20 17 -38 24t-37 7q-23 0 -43.5 -9t-36 -24t-24.5 -35.5t-9 -43.5t9 -43.5t24.5 -36t36 -24.5t43.5 -9q22 0 43 10.5t37 29t25.5 43.5t9.5 55l13 12h115l13 -12q0 -31 12 -49t29 -18t29.5 16.5t12.5 50.5l13 12h115 l13 -12q0 -21 10.5 -32.5t20.5 -11.5q13 0 22 12.5t9 31.5z" />
<glyph unicode="&#x200b;" />
<glyph unicode="&#x2013;" horiz-adv-x="701" d="M66 398l-16 16v124l16 16h569l16 -16v-124l-16 -16h-569z" />
<glyph unicode="&#x2014;" horiz-adv-x="900" d="M66 398l-16 16v124l16 16h770l16 -16v-124l-16 -16h-770z" />
<glyph unicode="&#x2018;" horiz-adv-x="417" d="M347 1008q-14 0 -31.5 -2t-34.5 -8t-32.5 -16t-25.5 -26q22 -4 41 -16t33 -28t22 -35t8 -38q0 -27 -10 -50.5t-27.5 -41t-41 -27.5t-50.5 -10q-26 0 -49.5 10t-41 27.5t-27.5 41t-10 50.5v68q0 50 18.5 94.5t54 77.5t87 52t117.5 19l12 -13v-114z" />
<glyph unicode="&#x2019;" horiz-adv-x="434" d="M82 852q14 0 31.5 2t34.5 8t32.5 16t25.5 26q-22 4 -41 16t-33 28t-22 35t-8 38q0 27 10 50.5t27.5 41t41 27.5t50.5 10q26 0 49.5 -10t41 -27.5t27.5 -41t10 -50.5v-68q0 -50 -18.5 -94.5t-54 -77.5t-87 -52t-117.5 -19l-12 13v114z" />
<glyph unicode="&#x201a;" d="M-587 993q-23 0 -50.5 -3t-55.5 -9t-53.5 -13.5t-43.5 -16.5l-17 1l-60 89l1 17q62 45 132.5 63.5t146.5 18.5q26 0 56 -4.5t55 -12.5v61l16 16h108l16 -16v-165l-45 -67l-17 -1q-17 10 -40.5 18t-49.5 13t-52 8t-47 3z" />
<glyph unicode="&#xf702;" d="M-587 993q-23 0 -50.5 -3t-55.5 -9t-53.5 -13.5t-43.5 -16.5l-17 1l-60 89l1 17q62 45 132.5 63.5t146.5 18.5q26 0 56 -4.5t55 -12.5v61l16 16h108l16 -16v-165l-45 -67l-17 -1q-17 10 -40.5 18t-49.5 13t-52 8t-47 3z" />
<glyph unicode="&#x201e;" d="M-597 1184l16 16h75l16 -16v-60q12 -1 26 -5t25 -8v73l16 16h71l16 -16v-144l-60 -89l-17 -1q-37 23 -87.5 33t-96.5 10q-23 0 -50.5 -3t-55.5 -9t-53.5 -13.5t-43.5 -16.5l-17 1l-60 89l1 17q62 45 132.5 63.5t146.5 18.5v44z" />
<glyph unicode="&#xf704;" d="M-597 1184l16 16h75l16 -16v-60q12 -1 26 -5t25 -8v73l16 16h71l16 -16v-144l-60 -89l-17 -1q-37 23 -87.5 33t-96.5 10q-23 0 -50.5 -3t-55.5 -9t-53.5 -13.5t-43.5 -16.5l-17 1l-60 89l1 17q62 45 132.5 63.5t146.5 18.5v44z" />
<glyph unicode="&#x2020;" d="M-350 1183v-216l-17 -17h-120l-17 17v216l17 17h120z" />
<glyph unicode="&#xf705;" d="M-350 1183v-216l-17 -17h-120l-17 17v216l17 17h120z" />
<glyph unicode="&#x2021;" d="M-588 950q-23 0 -43.5 7.5t-36.5 22.5t-26 36.5t-11 49.5q-20 0 -36.5 -6t-27.5 -13h-16v134q23 10 50.5 14.5t52.5 4.5q49 0 77.5 -28t29.5 -81q55 -1 106 1t84 5h18l17 -17v-113l-17 -17h-221z" />
<glyph unicode="&#xf706;" d="M-588 950q-23 0 -43.5 7.5t-36.5 22.5t-26 36.5t-11 49.5q-20 0 -36.5 -6t-27.5 -13h-16v134q23 10 50.5 14.5t52.5 4.5q49 0 77.5 -28t29.5 -81q55 -1 106 1t84 5h18l17 -17v-113l-17 -17h-221z" />
<glyph unicode="&#x2022;" horiz-adv-x="500" d="M100 450q0 31 12 58.5t32 47.5t47.5 32t58.5 12t58.5 -12t47.5 -32t32 -47.5t12 -58.5t-12 -58.5t-32 -47.5t-47.5 -32t-58.5 -12t-58.5 12t-47.5 32t-32 47.5t-12 58.5z" />
<glyph unicode="&#x2026;" horiz-adv-x="900" d="M100 50q0 21 14.5 35.5t35.5 14.5t35.5 -14.5t14.5 -35.5t-14.5 -35.5t-35.5 -14.5t-35.5 14.5t-14.5 35.5zM400 50q0 21 14.5 35.5t35.5 14.5t35.5 -14.5t14.5 -35.5t-14.5 -35.5t-35.5 -14.5t-35.5 14.5t-14.5 35.5zM700 50q0 21 14.5 35.5t35.5 14.5t35.5 -14.5 t14.5 -35.5t-14.5 -35.5t-35.5 -14.5t-35.5 14.5t-14.5 35.5z" />
<glyph unicode="&#x2030;" d="M-549 1125v58l17 17h90l17 -17v-58h58l17 -17v-90l-17 -17h-58v-58l-17 -17h-90l-17 17v58h-58l-17 17v90l17 17h58z" />
<glyph unicode="&#xf708;" d="M-549 1125v58l17 17h90l17 -17v-58h58l17 -17v-90l-17 -17h-58v-58l-17 -17h-90l-17 17v58h-58l-17 17v90l17 17h58z" />
<glyph unicode="&#x2039;" d="M-110 1183v-216l-17 -17h-120l-17 17v216l17 17h120z" />
<glyph unicode="&#xf70a;" d="M-110 1183v-216l-17 -17h-120l-17 17v216l17 17h120z" />
<glyph unicode="&#x203a;" d="M-336 1472v-205l-17 -17h-106l-17 17v205l17 17h106z" />
<glyph unicode="&#xf713;" d="M-336 1472v-205l-17 -17h-106l-17 17v205l17 17h106z" />
<glyph unicode="&#x20ac;" horiz-adv-x="769" d="M494 568q0 31 -11.5 57.5t-31.5 46.5t-46.5 31.5t-57.5 11.5q-21 0 -42.5 -8t-41 -22.5t-36 -34t-26.5 -41.5l-14 -3l-139 59q22 48 54 87.5t71 68t83 44t91 15.5q51 0 97 -1t89.5 2t86 11.5t87.5 27.5l29 -143q-12 -9 -29 -17.5t-35 -15t-37 -10.5t-35 -4 q26 -34 42.5 -74t16.5 -88v-348q0 -45 -17.5 -85t-47.5 -70t-70 -47.5t-85 -17.5t-85 17.5t-70 47.5t-47.5 70t-17.5 85v73q0 5 -4.5 7t-10.5 2q-10 0 -26.5 -1.5t-27.5 -3.5h-15v148q14 8 33 15t41 7q41 0 73.5 -13.5t55 -37t34.5 -55.5t12 -68v-73q0 -23 16 -39t39 -16 t39 16t16 39v348z" />
<glyph unicode="&#xf700;" horiz-adv-x="769" d="M494 568q0 31 -11.5 57.5t-31.5 46.5t-46.5 31.5t-57.5 11.5q-21 0 -42.5 -8t-41 -22.5t-36 -34t-26.5 -41.5l-14 -3l-139 59q22 48 54 87.5t71 68t83 44t91 15.5q51 0 97 -1t89.5 2t86 11.5t87.5 27.5l29 -143q-12 -9 -29 -17.5t-35 -15t-37 -10.5t-35 -4 q26 -34 42.5 -74t16.5 -88v-348q0 -45 -17.5 -85t-47.5 -70t-70 -47.5t-85 -17.5t-85 17.5t-70 47.5t-47.5 70t-17.5 85v73q0 5 -4.5 7t-10.5 2q-10 0 -26.5 -1.5t-27.5 -3.5h-15v148q14 8 33 15t41 7q41 0 73.5 -13.5t55 -37t34.5 -55.5t12 -68v-73q0 -23 16 -39t39 -16 t39 16t16 39v348z" />
<glyph unicode="&#x2122;" d="M-630 1091q0 29 11 54.5t30 44.5t44.5 30t54.5 11t54.5 -11t44.5 -30t30 -44.5t11 -54.5t-11 -55t-30 -45t-44.5 -30t-54.5 -11t-54.5 11t-44.5 30t-30 45t-11 55zM-540 1091q0 -21 14.5 -36t35.5 -15t35.5 15t14.5 36t-14.5 35.5t-35.5 14.5t-35.5 -14.5t-14.5 -35.5z " />
<glyph unicode="&#xf711;" d="M-630 1091q0 29 11 54.5t30 44.5t44.5 30t54.5 11t54.5 -11t44.5 -30t30 -44.5t11 -54.5t-11 -55t-30 -45t-44.5 -30t-54.5 -11t-54.5 11t-44.5 30t-30 45t-11 55zM-540 1091q0 -21 14.5 -36t35.5 -15t35.5 15t14.5 36t-14.5 35.5t-35.5 14.5t-35.5 -14.5t-14.5 -35.5z " />
<glyph unicode="&#x25cc;" horiz-adv-x="1049" d="M400 50q0 21 14.5 35.5t35.5 14.5t35.5 -14.5t14.5 -35.5t-14.5 -35.5t-35.5 -14.5t-35.5 14.5t-14.5 35.5zM400 750q0 21 14.5 35.5t35.5 14.5t35.5 -14.5t14.5 -35.5t-14.5 -35.5t-35.5 -14.5t-35.5 14.5t-14.5 35.5zM750 400q0 21 14.5 35.5t35.5 14.5t35.5 -14.5 t14.5 -35.5t-14.5 -35.5t-35.5 -14.5t-35.5 14.5t-14.5 35.5zM50 400q0 21 14.5 35.5t35.5 14.5t35.5 -14.5t14.5 -35.5t-14.5 -35.5t-35.5 -14.5t-35.5 14.5t-14.5 35.5zM150 600q0 21 14.5 35.5t35.5 14.5t35.5 -14.5t14.5 -35.5t-14.5 -35.5t-35.5 -14.5t-35.5 14.5 t-14.5 35.5zM650 600q0 21 14.5 35.5t35.5 14.5t35.5 -14.5t14.5 -35.5t-14.5 -35.5t-35.5 -14.5t-35.5 14.5t-14.5 35.5zM150 200q0 21 14.5 35.5t35.5 14.5t35.5 -14.5t14.5 -35.5t-14.5 -35.5t-35.5 -14.5t-35.5 14.5t-14.5 35.5zM650 200q0 21 14.5 35.5t35.5 14.5 t35.5 -14.5t14.5 -35.5t-14.5 -35.5t-35.5 -14.5t-35.5 14.5t-14.5 35.5z" />
<glyph unicode="&#x25fc;" horiz-adv-x="880" d="M0 880h880v-880h-880v880z" />
<glyph unicode="&#xf701;" d="M-600 1140q76 0 146.5 -18.5t132.5 -63.5l1 -17l-60 -92l-17 -1q-18 9 -43.5 16.5t-53.5 13.5t-55.5 9t-50.5 3t-50.5 -3t-55.5 -9t-53.5 -13.5t-43.5 -16.5l-17 1l-60 92l1 17q62 45 132.5 63.5t146.5 18.5z" />
<glyph unicode="&#xf70c;" d="M-127 927h-90l-17 17v31q0 12 -9 19.5t-22 7.5q-12 0 -20.5 -7.5t-8.5 -24.5l-6 -8h-77l-7 8q0 17 -10 28.5t-21 11.5q-14 0 -19 -6.5t-5 -15.5q0 -8 3 -15t8 -15v-16l-91 -26l-13 2q-15 17 -21.5 30.5t-6.5 39.5q0 30 11.5 56.5t31 46t46 31t56.5 11.5q21 0 43 -11 t37 -27q14 17 31.5 27.5t38.5 10.5q9 0 18 -3t13 -5v58l17 17h90l17 -17v-239z" />
<glyph unicode="&#xf70e;" d="M-127 1017h-257q-2 -11 -0.5 -20.5t9.5 -18.5l-4 -11l-126 -26q-5 13 -10 33.5t-5 30.5q0 30 11.5 56.5t31 46t46 31t56.5 11.5h248l17 -17v-99z" />
<glyph unicode="&#xf70f;" horiz-adv-x="1264" d="M1155 317q0 -66 -20.5 -124t-58.5 -100.5t-91.5 -67.5t-120.5 -25t-121.5 25t-93 68t-59.5 101t-21 124v250q0 31 -11.5 57.5t-31.5 46.5t-46.5 31.5t-57.5 11.5q-60 0 -97.5 -14.5t-63.5 -50.5q11 -38 12.5 -79.5t1.5 -75.5v-318q0 -5 5 -11.5t11 -6.5q17 0 36 4t38 9 h18v-152q-26 -8 -51.5 -14t-47.5 -6q-36 0 -67.5 13.5t-55.5 37.5t-37.5 55.5t-13.5 67.5v321q0 43 -7.5 82t-22.5 77q40 104 127 165t215 61q64 0 121 -24.5t99.5 -66.5t67 -99t24.5 -122v-250q0 -31 9 -58.5t25.5 -47.5t41 -32t54.5 -12q29 0 51.5 11t38.5 30.5t25 45.5 t11 56v552l17 17h131l17 -17v-546z" />
<glyph unicode="&#xf715;" d="M-353 1250h-90l-17 17v31q0 12 -9 19.5t-22 7.5q-12 0 -20.5 -7.5t-8.5 -24.5l-6 -8h-77l-7 8q0 17 -10 28.5t-21 11.5q-14 0 -19 -6.5t-5 -15.5q0 -8 3 -15t8 -15v-16l-91 -26l-13 2q-15 17 -21.5 30.5t-6.5 39.5q0 30 11.5 56.5t31 46t46 31t56.5 11.5q21 0 43 -11 t37 -27q14 17 31.5 27.5t38.5 10.5q9 0 18 -3t13 -5v58l17 17h90l17 -17v-239z" />
<glyph unicode="&#xf718;" d="M-288 -702v148q-19 0 -41.5 -4t-30.5 -8l-15 2v160q27 8 53 11.5t48 3.5q32 0 58.5 -12.5t45.5 -33.5t29.5 -49t10.5 -60v-158l-17 -17h-124z" />
<glyph unicode="&#xf719;" d="M-249 -397h102l17 -17v-182q0 -27 -10.5 -51t-28 -42t-41.5 -28t-51 -10h-55q-27 0 -50.5 10.5t-41.5 28.5t-28 42t-10 51v38q-9 0 -18 -3t-17 -7h-11v157q14 5 28.5 9t31.5 4q70 0 95.5 -38.5t25.5 -116.5v-44h45v182z" />
<glyph unicode="&#xf71a;" d="M-364 -514q0 24 9.5 45.5t25 37.5t37 25t45.5 9t45.5 -9t37.5 -25t25 -37.5t9 -45.5t-9 -45t-25 -37t-37.5 -25t-45.5 -9t-45.5 9t-37 25t-25 37t-9.5 45z" />
<glyph horiz-adv-x="1050" d="M800 305q0 24 -9.5 48t-25.5 46.5t-36.5 41.5t-42.5 32v114l11 21q51 14 77 56t26 99q0 6 -1.5 16t-4 22t-5.5 24t-6 21l34 34l124 11q5 -13 9.5 -29.5t7.5 -33.5t5 -34t2 -31q0 -69 -24 -130t-72 -99q48 -40 72 -100.5t24 -128.5v-35q0 -55 -18 -104t-51 -86t-80 -58.5 t-106 -21.5q-54 0 -97.5 23.5t-75.5 61.5q-32 -38 -75.5 -61.5t-96.5 -23.5q-59 0 -106 21.5t-80 58.5t-51 86t-18 104v436q0 5 -3 10t-10 5q-9 0 -19 -2t-20 -5h-9v150q16 8 31.5 12t32.5 4q31 0 61 -12.5t53 -34t36 -50t12 -59.5v-454q0 -45 26 -75t64 -30q37 0 63.5 28.5 t26.5 76.5v373l17 17h131l17 -17v-373q0 -45 26 -75t64 -30t64 30t26 75v35z" />
<glyph horiz-adv-x="700" d="M-629 1057q0 29 11 54.5t30 44.5t44.5 30t54.5 11t54.5 -11t44.5 -30t30 -44.5t11 -54.5t-11 -55t-30 -45t-44.5 -30t-54.5 -11t-54.5 11t-44.5 30t-30 45t-11 55zM583 0h-131l-17 17v551q0 31 -11.5 57.5t-31 46t-46.5 31t-57 11.5q-17 0 -35.5 -6t-36.5 -15.5 t-34.5 -22.5t-29.5 -27l-15 -2l-106 109q54 60 120 95t137 35q64 0 121 -24.5t99 -67t66.5 -99.5t24.5 -121v-551zM-539 1057q0 -21 14.5 -36t35.5 -15t35.5 15t14.5 36t-14.5 35.5t-35.5 14.5t-35.5 -14.5t-14.5 -35.5z" />
<glyph d="M-304 1240h-46q-38 0 -64 -26t-26 -64t26 -64t64 -26t64 26t26 64h60q0 -31 -12 -58.5t-32 -47.5t-47.5 -32t-58.5 -12t-58.5 12t-47.5 32t-32 47.5t-12 58.5q0 52 31.5 91.5t79.5 52.5q-11 22 -11 46q0 42 29 71t71 29h150v-60h-150q-17 0 -28.5 -11.5t-11.5 -28.5 t11.5 -28.5t28.5 -11.5v-60h-4z" />
<glyph horiz-adv-x="1240" d="M250 177q0 -5 5 -11.5t11 -6.5q17 0 36 4t38 9h18v-152q-26 -8 -51.5 -14t-47.5 -6q-36 0 -67.5 13.5t-55.5 37.5t-37.5 55.5t-13.5 67.5v321q0 43 -7.5 82t-22.5 77q40 104 127 165t215 61q64 0 121 -24.5t99.5 -66.5t67 -99t24.5 -122v-250q0 -31 9 -58.5t25.5 -47.5 t41 -32t54.5 -12q29 0 51.5 11t38.5 30.5t25 45.5t11 56v552l17 17h131l17 -17v-779q0 -66 -20.5 -126.5t-58 -106.5t-91 -73.5t-120.5 -27.5q-28 0 -64.5 7.5t-66.5 19.5v157l17 5q11 -5 26.5 -8.5t32 -6t31 -4t24.5 -1.5q24 0 46.5 7.5t40 25t28 45t10.5 68.5 q-26 -29 -58.5 -47t-67.5 -18q-67 0 -121.5 25t-93 68t-59.5 101t-21 124v250q0 31 -11.5 57.5t-31.5 46.5t-46.5 31.5t-57.5 11.5q-60 0 -97.5 -14.5t-63.5 -50.5q11 -38 12.5 -79.5t1.5 -75.5v-318z" />
</font>
</defs>
</svg>
