<?xml version="1.0" encoding="utf-8"?>
<!-- Generator: Adobe Illustrator 13.0.1, SVG Export Plug-In  -->
<!DOCTYPE svg PUBLIC "-//W3C//DTD SVG 1.1//EN" "http://www.w3.org/Graphics/SVG/1.1/DTD/svg11.dtd" [
	<!ENTITY ns_flows "http://ns.adobe.com/Flows/1.0/">
]>
<svg version="1.1"
	 xmlns="http://www.w3.org/2000/svg" xmlns:xlink="http://www.w3.org/1999/xlink" xmlns:a="http://ns.adobe.com/AdobeSVGViewerExtensions/3.0/"
	 x="0px" y="0px" width="100px" height="37px" viewBox="-0.079 -0.661 100 37" enable-background="new -0.079 -0.661 100 37"
	 xml:space="preserve">
<defs>
</defs>
<polyline fill="#0079C1" points="29.358,18.497 26.605,10.025 23.848,18.497 29.358,18.497 "/>
<polyline fill="#0079C1" points="22.812,21.658 21.865,24.595 18.244,24.595 24.451,5.52 28.757,5.52 26.969,0 0,8.764 
	8.764,35.732 32.462,28.031 30.396,21.658 22.812,21.658 "/>
<path d="M59.108,12.005c-0.385-1.527-1.536-3.644-4.559-3.644c-3.634,0-5.145,3.376-5.145,6.693c0,3.323,1.511,6.7,5.145,6.7
	c2.432,0,4.634-1.796,4.634-4.422h-4.505v-3.162h7.628v10.424h-2.969v-1.636c-1.203,1.421-3.201,2.116-4.788,2.116
	c-5.836,0-8.729-4.635-8.729-10.021c0-5.382,3.276-10.017,8.729-10.017c3.713,0,6.375,1.956,7.757,5.6L59.108,12.005"/>
<path d="M82.298,15.055c0,5.386-3.344,10.021-8.913,10.021c-5.559,0-8.904-4.635-8.904-10.021c0-5.382,3.346-10.017,8.904-10.017
	C78.954,5.038,82.298,9.673,82.298,15.055 M68.14,15.055c0,3.323,1.543,6.7,5.245,6.7c3.712,0,5.255-3.377,5.255-6.7
	c0-3.317-1.543-6.693-5.255-6.693C69.683,8.361,68.14,11.737,68.14,15.055z"/>
<polyline points="45.494,21.271 35.276,21.271 35.276,16.342 42.483,16.342 42.483,13.18 35.276,13.18 35.276,8.843 44.801,8.843 
	44.801,5.52 31.687,5.52 31.687,14.528 34.957,24.595 45.494,24.595 45.494,21.271 "/>
<polyline points="95.944,5.52 95.944,18.414 87.996,5.52 84.582,5.52 84.582,24.595 87.85,24.595 87.85,11.516 95.917,24.595 
	99.212,24.595 99.212,5.52 95.944,5.52 "/>
<polyline points="87.85,29.136 36.433,29.136 37.067,31.088 87.85,31.088 87.85,29.136 "/>
</svg>
